<svg width="18" height="18" viewBox="0 0 18 18" fill="none" xmlns="http://www.w3.org/2000/svg">
<path opacity="0.7" d="M17.9855 16.9061L15.7586 6.0663C15.655 5.61878 15.2925 5.32044 14.8264 5.32044H12.1851C12.4958 4.8232 12.703 4.1768 12.703 3.53039C12.703 1.59116 11.0457 0 9.02592 0C7.00611 0 5.34884 1.59116 5.34884 3.53039C5.34884 4.1768 5.556 4.77348 5.86674 5.32044H3.17367C2.70756 5.32044 2.34504 5.61878 2.24146 6.0663L0.0144958 16.9061C-0.0890837 17.453 0.377024 18 0.946712 18H17.0015C17.623 18 18.0891 17.453 17.9855 16.9061ZM8.97413 1.98895C9.85455 1.98895 10.5796 2.68508 10.5796 3.53039C10.5796 4.37569 9.85455 5.07182 8.97413 5.07182C8.0937 5.07182 7.36864 4.37569 7.36864 3.53039C7.36864 2.68508 8.0937 1.98895 8.97413 1.98895Z" fill="#BAB9C4"/>
</svg>
