<svg width="20" height="18" viewBox="0 0 20 18" fill="none" xmlns="http://www.w3.org/2000/svg">
<path opacity="0.7" fill-rule="evenodd" clip-rule="evenodd" d="M17.821 12.2989H1.90142C1.44165 12.2989 0.981884 11.954 0.981884 11.4368L0.00487119 1.03448C-0.0526001 0.459771 0.407171 0 0.924412 0H18.798C19.3727 0 19.775 0.459771 19.7175 1.03448L18.7405 11.4368C18.7405 11.954 18.3382 12.2989 17.821 12.2989ZM16.3612 14C15.2416 14 14.3619 14.92 14.3619 16C14.3619 17.12 15.2816 18 16.3612 18C17.4409 18 18.3606 17.08 18.3606 16C18.4006 14.92 17.4809 14 16.3612 14ZM5.36188 16C5.36188 17.1046 4.46645 18 3.36188 18C2.25731 18 1.36188 17.1046 1.36188 16C1.36188 14.8954 2.25731 14 3.36188 14C4.46645 14 5.36188 14.8954 5.36188 16Z" fill="#BAB9C4"/>
</svg>
