<svg width="61" height="60" viewBox="0 0 61 60" fill="none" xmlns="http://www.w3.org/2000/svg">
<path fill-rule="evenodd" clip-rule="evenodd" d="M30.0333 7.99113L26.6371 10.4551L27.9356 6.4595L24.5394 3.99557H28.7347L30.0333 0L31.3319 3.99557H35.5272L32.131 6.4595L33.4295 10.4551L30.0333 7.99113ZM43.0189 10.7547L39.656 13.2187L40.9213 9.2231L37.5583 6.75916H41.7537L43.0189 2.7636L44.3175 6.75916H48.5128L45.1166 9.2231L46.4152 13.2187L43.0189 10.7547ZM49.3785 18.7793L48.08 22.7748L51.4762 20.3109L54.8724 22.7748L53.5739 18.7793L56.9701 16.3153H52.7748L51.4762 12.3198L50.1776 16.3153H45.9823L49.3785 18.7793ZM56.0045 28.1022H60.1998L56.8036 30.5661L58.1022 34.5616L54.7059 32.0977L51.3097 34.5616L52.6083 30.5661L49.212 28.1022H53.4074L54.7059 24.1066L56.0045 28.1022ZM53.3408 39.8891L52.0423 35.8935L50.7437 39.8891H46.5484L49.9446 42.353L48.646 46.3153L52.0423 43.8514L55.4385 46.3153L54.1399 42.353L57.5362 39.8891H53.3408ZM43.0189 44.7836L44.3175 48.7459H48.5128L45.1166 51.2098L46.4152 55.2054L43.0189 52.7414L39.656 55.2054L40.9213 51.2098L37.5583 48.7459H41.7537L43.0189 44.7836ZM13.7514 13.2187L17.1476 10.7547L20.5439 13.2187L19.2453 9.2231L22.6415 6.75916H18.4462L17.1476 2.7636L15.8491 6.75916H11.6537L15.05 9.2231L13.7514 13.2187ZM8.72367 20.3109L5.32744 22.7748L6.626 18.7793L3.22976 16.3153H7.42511L8.72367 12.3198L9.98893 16.3153H14.1843L10.8213 18.7793L12.0866 22.7748L8.72367 20.3109ZM5.4939 32.0977L8.89013 34.5616L7.59157 30.5661L10.9878 28.1022H6.79246L5.4939 24.1066L4.19534 28.1022H0L3.39623 30.5661L2.09767 34.5616L5.4939 32.0977ZM9.45619 39.8891H13.6515L10.2553 42.353L11.5539 46.3153L8.15763 43.8514L4.7614 46.3153L6.05996 42.353L2.66373 39.8891H6.85907L8.15763 35.8935L9.45619 39.8891ZM18.4462 48.7459L17.1476 44.7836L15.8491 48.7459H11.6537L15.05 51.2098L13.7514 55.2054L17.1476 52.7414L20.5439 55.2054L19.2453 51.2098L22.6415 48.7459H18.4462ZM30.0333 49.545L31.3319 53.5406H35.5272L32.131 56.0045L33.4295 60.0001L30.0333 57.5361L26.6371 60.0001L27.9356 56.0045L24.5394 53.5406H28.7347L30.0333 49.545ZM30.3996 16.5151V18.3131H32.3974V26.6372H37.4584V15.0834H33.6959C32.464 16.8814 30.3996 16.5151 30.3996 16.5151ZM24.5061 26.6372H22.6415V21.4097H24.3729L26.3374 23.6738V21.4097H28.202V26.6372H26.5039L24.5061 24.373V26.6372ZM31.9645 24.706H28.868V25.5051H31.9645V24.706ZM28.8014 23.1078C28.8014 22.3753 29.5339 21.8093 30.3996 21.8093C31.2653 21.8093 31.9978 22.3753 31.9978 23.1078C31.9978 23.8403 31.2986 24.4064 30.3996 24.4064C29.5006 24.4064 28.8014 23.807 28.8014 23.1078ZM29.8335 23.1078C29.8335 23.4741 30.0666 23.807 30.3996 23.807C30.6993 23.807 30.9656 23.5074 30.9656 23.1078C30.9656 22.7416 30.7325 22.4086 30.3996 22.4086C30.0999 22.4086 29.8335 22.7083 29.8335 23.1078ZM19.2453 30.3997C19.3785 30.2 19.4118 30.0002 19.4118 29.7338C19.4118 29.301 19.2453 28.9347 18.8791 28.7016C18.5128 28.4685 18.0134 28.3354 17.3474 28.3354H14.6504V33.6628H17.4806C18.1798 33.6628 18.7126 33.5296 19.0788 33.2632C19.4451 32.9968 19.6449 32.5973 19.6449 32.1311C19.6449 31.8315 19.5783 31.5651 19.4118 31.3653C19.2453 31.1655 19.0123 30.9991 18.7126 30.8992C18.9457 30.7327 19.1121 30.5662 19.2453 30.3997ZM16.4151 29.5673H17.181C17.4806 29.5673 17.6138 29.7005 17.6138 29.9669C17.6138 30.2332 17.4806 30.3664 17.181 30.3664H16.4151V29.5673ZM17.414 32.3975H16.4151V31.5651H17.414C17.7137 31.5651 17.8469 31.6983 17.8469 31.9647C17.8469 32.2643 17.7137 32.3975 17.414 32.3975ZM25.7048 28.3354H27.4695V33.6628H25.7048V28.3354ZM24.606 33.1631C25.0056 32.8301 25.2054 32.364 25.2054 31.7314C25.2054 31.1653 25.0389 30.7325 24.6726 30.4328C24.3064 30.1331 23.8069 29.9999 23.141 29.9999H22.0422V28.3684H20.2775V33.6958H22.9079C23.6404 33.6625 24.2065 33.4961 24.606 33.1631ZM22.0422 32.3973V31.2319H22.808C23.2076 31.2319 23.4407 31.3984 23.4407 31.7647C23.4407 31.9644 23.3741 32.1309 23.2742 32.2308C23.1743 32.3307 23.0078 32.3973 22.8413 32.3973H22.0422ZM31.232 33.6625H28.4351V28.3684H33.0633V29.7336H30.1998V30.3329H31.4651C32.131 30.3329 32.6305 30.4661 32.9634 30.7325C33.3297 30.9988 33.4962 31.3984 33.4962 31.9311C33.4962 32.4639 33.2964 32.8967 32.8968 33.1964C32.4973 33.4961 31.9312 33.6625 31.232 33.6625ZM31.1321 31.5316H30.2331V32.364H31.1654C31.3319 32.364 31.4651 32.3307 31.565 32.2641C31.6649 32.1975 31.6982 32.0643 31.6982 31.9311C31.6982 31.6648 31.4984 31.5316 31.1321 31.5316ZM36.7925 33.7626C37.3585 33.7626 37.8913 33.6294 38.3241 33.3964C38.7903 33.1633 39.1233 32.8303 39.3896 32.3975C39.656 31.9646 39.7892 31.4985 39.7892 30.9657C39.7892 30.433 39.656 29.9668 39.3896 29.534C39.1233 29.1011 38.7903 28.7682 38.3241 28.5351C37.858 28.302 37.3585 28.1688 36.7925 28.1688C36.2265 28.1688 35.6937 28.302 35.2609 28.5351C34.7947 28.7682 34.4618 29.1011 34.1954 29.534C33.929 29.9668 33.7958 30.433 33.7958 30.9657C33.7958 31.4985 33.929 31.9646 34.1954 32.3975C34.4618 32.8303 34.7947 33.1633 35.2609 33.3964C35.6937 33.6627 36.2265 33.7626 36.7925 33.7626ZM35.7603 30.2998C35.8602 30.1 35.9934 29.9335 36.1932 29.8337C36.3596 29.7338 36.5594 29.6672 36.7925 29.6672C37.0256 29.6672 37.2254 29.7338 37.3918 29.8337C37.5583 29.9335 37.7248 30.1 37.8247 30.2998C37.9246 30.4996 37.9912 30.7327 37.9912 30.999C37.9912 31.2654 37.9246 31.4985 37.8247 31.6983C37.7248 31.898 37.5916 32.0645 37.3918 32.1644C37.2254 32.2643 37.0256 32.3309 36.7925 32.3309C36.5594 32.3309 36.3596 32.2643 36.1932 32.1644C36.0267 32.0645 35.8602 31.898 35.7603 31.6983C35.6604 31.4985 35.5938 31.2654 35.5938 30.999C35.5938 30.7327 35.6604 30.4996 35.7603 30.2998ZM42.9856 28.3354C43.4851 28.3354 43.9179 28.402 44.2842 28.5684C44.6505 28.7349 44.9168 28.968 45.1166 29.301C45.3164 29.6006 45.4163 29.9669 45.4163 30.3664C45.4163 30.766 45.3164 31.1323 45.1166 31.4319C44.9168 31.7316 44.6505 31.9647 44.2842 32.1311C43.9179 32.2976 43.4851 32.3642 42.9856 32.3642H42.2198V33.6628H40.4218V28.3354H42.9856ZM42.8858 30.9658C43.1188 30.9658 43.2853 30.8992 43.4185 30.7993C43.5517 30.6994 43.6183 30.5329 43.585 30.3664C43.585 30.1667 43.5517 30.0002 43.4185 29.9003C43.3186 29.8004 43.1188 29.7338 42.8858 29.7338H42.2198V30.9658H42.8858ZM20.3108 36.3929H22.6083V35.0278H18.5461V40.3219H20.3108V36.3929ZM28.1354 39.09C27.8691 39.5228 27.5361 39.8558 27.0699 40.0889C26.6038 40.322 26.1043 40.4551 25.5383 40.4551C24.9723 40.4551 24.4728 40.322 24.0067 40.0889C23.5405 39.8558 23.2076 39.5228 22.9412 39.09C22.6748 38.6571 22.5416 38.191 22.5416 37.6582C22.5416 37.1255 22.6748 36.6594 22.9412 36.2265C23.2076 35.7936 23.5405 35.4607 24.0067 35.2276C24.4395 34.9945 24.9723 34.8613 25.5383 34.8613C26.1043 34.8613 26.6038 34.9945 27.0699 35.2276C27.5361 35.4607 27.8691 35.7936 28.1354 36.2265C28.4018 36.6594 28.535 37.1255 28.535 37.6582C28.535 38.191 28.4018 38.6571 28.1354 39.09ZM24.3396 37.6915C24.3396 37.9579 24.4062 38.191 24.5061 38.3908C24.606 38.5905 24.7392 38.7237 24.939 38.8569C25.1055 38.9568 25.3052 39.0234 25.5383 39.0234C25.7714 39.0234 25.9712 38.9568 26.1376 38.8569C26.3374 38.757 26.4706 38.5905 26.5705 38.3908C26.6704 38.191 26.737 37.9579 26.737 37.6915C26.737 37.4252 26.6704 37.1921 26.5705 36.9923C26.4706 36.7925 26.3041 36.6261 26.1376 36.5262C25.9712 36.4263 25.7714 36.3597 25.5383 36.3597C25.3052 36.3597 25.1055 36.4263 24.939 36.5262C24.7392 36.6261 24.606 36.7925 24.5061 36.9923C24.4062 37.1921 24.3396 37.4252 24.3396 37.6915ZM34.9945 41.3874V38.9567H34.2953V35.0278H29.8003L29.7337 36.6593C29.7004 37.4251 29.6005 37.9911 29.5006 38.3907C29.3674 38.7902 29.1676 38.99 28.8347 38.99H28.6682V41.4207H30.2997V40.3885H33.3297V41.4207H34.9945V41.3874ZM32.5306 38.9567H30.899C31.0322 38.7569 31.1321 38.4573 31.1654 38.091C31.232 37.7248 31.2653 37.2919 31.2986 36.7925V36.4262H32.5306V38.9567ZM41.6538 40.3219H39.7892L39.4562 39.3896H37.4251L37.0589 40.3219H35.2276L37.5583 34.9945H39.323L41.6538 40.3219ZM38.424 36.7925L37.8913 38.1243H38.9567L38.424 36.7925Z" fill="#FF906D"/>
</svg>
