<svg width="36" height="49" viewBox="0 0 36 49" fill="none" xmlns="http://www.w3.org/2000/svg">
<path fill-rule="evenodd" clip-rule="evenodd" d="M12.3682 5.90847L12.6084 6.33559C13.7131 8.21017 15.7545 9.39661 17.964 9.39661C20.1734 9.39661 22.2148 8.2339 23.3195 6.33559L23.5597 5.90847H26.6818C25.3369 2.44407 21.9506 0 17.964 0C16.523 0 15.1541 0.332203 13.9293 0.901695C11.7918 1.92203 10.0867 3.70169 9.22213 5.90847H12.3682ZM27.5944 20.4305H8.35756C6.77251 20.4305 5.47564 21.7119 5.47564 23.278V24.9627C5.47564 31.7729 11.0714 37.3017 17.964 37.3017C24.8566 37.3017 30.4523 31.7729 30.4523 24.9627V23.278C30.4763 21.7119 29.1794 20.4305 27.5944 20.4305ZM17.964 11.0339C20.6057 11.0339 23.0794 9.72879 24.5203 7.56947H27.1861C27.3062 8.11523 27.3542 8.68473 27.3542 9.25422C27.3542 14.3559 23.1514 18.5085 17.988 18.5085C12.8245 18.5085 8.62174 14.3559 8.62174 9.25422C8.62174 8.68473 8.66977 8.11523 8.76584 7.56947H11.4076C12.8726 9.70506 15.3222 11.0339 17.964 11.0339ZM9.43829 39.722C3.65043 39.722 1.82522 38.061 1.82522 35.1186V33.1017C1.82522 32.6034 1.41694 32.2 0.912608 32.2C0.408272 32.2 0 32.6034 0 33.1017V37.3017C0 40.3153 1.75317 45.2983 8.69379 45.2983C12.8966 45.2983 13.3769 47.9559 13.3769 49H16.9313C16.8832 45.4881 16.1868 39.722 9.43829 39.722ZM34.1508 33.1017C34.1508 32.6034 34.559 32.2 35.0634 32.2C35.5677 32.2 35.976 32.6034 36 33.1017V37.3017C36 40.3153 34.2228 45.2983 27.3062 45.2983C23.1034 45.2983 22.6231 47.9559 22.6231 49H19.0687C19.0687 45.5119 19.7892 39.722 26.5377 39.722C32.3256 39.722 34.1508 38.061 34.1508 35.1186V33.1017Z" fill="#FF906D"/>
</svg>
