<svg width="21" height="21" viewBox="0 0 21 21" fill="none" xmlns="http://www.w3.org/2000/svg">
<path fill-rule="evenodd" clip-rule="evenodd" d="M0 10.2998C0 4.6001 4.59998 0 10.3 0C16 0 20.6 4.6001 20.6 10.2998C20.6 16 16 20.6001 10.3 20.6001C4.59998 20.6001 0 16 0 10.2998ZM1 10.2998C1 15.3999 5.20001 19.6001 10.3 19.6001C15.5 19.6001 19.6 15.3999 19.6 10.2998C19.6 5.2002 15.4 1 10.3 1C5.20001 1 1 5.2002 1 10.2998ZM6.20001 10.2998C6.20001 12.7998 8.20001 14.7998 10.7 14.7998C12 14.7998 13.2 14.2998 14 13.2998L15.6 14.5996C14.3 16 12.6 16.7998 10.7 16.7998C7.10004 16.7998 4.20001 13.8999 4.20001 10.2998C4.20001 6.69971 7.10004 3.7998 10.7 3.7998C12.2 3.7998 13.7 4.3999 14.9 5.3999L13.6 6.8999C12.8 6.19971 11.8 5.7998 10.7 5.7998C8.20001 5.7998 6.20001 7.7998 6.20001 10.2998Z" fill="white"/>
</svg>
