<svg width="25" height="26" viewBox="0 0 25 26" fill="none" xmlns="http://www.w3.org/2000/svg">
<path d="M25.0002 13.0847C25.0002 15.6874 25.0002 18.2901 25.0002 20.8928C25.0002 23.1117 23.4127 25.0304 21.2402 25.4642C21.0063 25.5142 20.7556 25.5476 20.5049 25.5476C19.519 25.5643 18.5163 25.5476 17.5303 25.5643C17.2797 25.5643 17.1961 25.4809 17.1961 25.2473C17.1961 22.2275 17.1961 19.2077 17.1961 16.1879C17.1961 15.9376 17.2797 15.8542 17.5303 15.8542C18.3826 15.8709 19.2516 15.8542 20.1039 15.8542C20.3712 15.8542 20.4548 15.7708 20.4882 15.5039C20.5885 14.5362 20.7389 13.5852 20.8559 12.6175C20.8559 12.5842 20.8559 12.5675 20.8726 12.5341C20.906 12.1837 20.906 12.1837 20.5718 12.1837C19.8699 12.1837 19.168 12.1837 18.4662 12.1837C18.1319 12.1837 17.7977 12.1837 17.4802 12.1837C17.2964 12.1837 17.1961 12.117 17.1961 11.9168C17.2128 11.0326 17.146 10.165 17.2462 9.28073C17.3465 8.39648 17.8144 7.94602 18.7168 7.91265C19.3853 7.89597 20.0537 7.87928 20.7222 7.87928C20.9561 7.87928 21.0564 7.81255 21.0564 7.56229C21.0397 6.67804 21.0397 5.79379 21.0564 4.89285C21.0564 4.67596 20.9895 4.55917 20.7556 4.54249C19.6861 4.47575 18.6166 4.39233 17.5303 4.47575C15.4247 4.62591 13.8204 6.0941 13.4862 8.19628C13.3692 8.91369 13.4194 9.6311 13.4026 10.3485C13.4026 10.8657 13.4026 11.3662 13.4026 11.8834C13.4026 12.117 13.3191 12.2004 13.0851 12.2004C12.2162 12.2004 11.3472 12.2004 10.4782 12.2004C10.2275 12.2004 10.1272 12.2672 10.1272 12.5341C10.144 13.5518 10.144 14.5529 10.1272 15.5706C10.1272 15.8042 10.1941 15.8876 10.4281 15.8876C11.2803 15.8709 12.1493 15.8876 13.0016 15.8709C13.2857 15.8709 13.3859 15.9543 13.3859 16.2379C13.3859 19.2244 13.3859 22.2275 13.3859 25.2139C13.3859 25.4809 13.3024 25.5977 13.0183 25.5977C10.2442 25.581 7.47016 25.5977 4.71281 25.5977C2.08915 25.5977 0.0169554 23.5288 0.000244141 20.8928C0.000244141 16.2546 0.000244141 11.6499 0.0169554 7.04508C0.0169554 6.27762 -0.0331783 5.51016 0.0503778 4.75938C0.317757 2.42362 2.3231 0.621755 4.67939 0.605071C7.6707 0.605071 10.662 0.605071 13.67 0.605071C15.9093 0.605071 18.1319 0.588387 20.3712 0.605071C22.5604 0.621755 24.4655 2.20673 24.9167 4.3256C24.9835 4.67596 25.0002 5.00964 25.0002 5.36C25.0002 7.94602 25.0002 10.5153 25.0002 13.0847Z" fill="#54535F"/>
</svg>
