<svg width="26" height="26" viewBox="0 0 26 26" fill="none" xmlns="http://www.w3.org/2000/svg">
<path fill-rule="evenodd" clip-rule="evenodd" d="M13.1592 0.607196C13.5864 0.607196 14.0135 0.60603 14.4407 0.604863C15.4017 0.602239 16.3628 0.599615 17.3239 0.610275C18.4258 0.622594 19.5247 0.699583 20.5928 1.00138C21.7194 1.3155 22.7259 1.84211 23.5416 2.69823C24.5604 3.76992 25.1483 5.06026 25.4161 6.50458C25.5516 7.23752 25.5947 7.97662 25.6008 8.72188C25.6064 9.53002 25.6152 10.3371 25.6241 11.1443L25.6241 11.1461C25.63 11.6856 25.6359 12.2252 25.6408 12.7654C25.6501 14.3021 25.6408 15.8419 25.6224 17.3786C25.607 18.5119 25.5085 19.6359 25.1791 20.7353C24.6004 22.6662 23.3631 24.0058 21.5408 24.8219C20.6143 25.2376 19.6355 25.4409 18.6259 25.5117C17.4225 25.5982 16.2191 25.5981 15.0156 25.598L14.8953 25.598C14.5149 25.598 14.1345 25.5983 13.7542 25.5986C12.4231 25.5996 11.0921 25.6007 9.76105 25.5887C8.92689 25.5826 8.09273 25.5733 7.26165 25.4779C5.94732 25.3239 4.69146 24.9913 3.59875 24.2121C2.31827 23.2944 1.50873 22.0441 1.08088 20.5413C0.846948 19.7252 0.736137 18.8906 0.705357 18.0407C0.629093 15.8733 0.641402 13.7058 0.653702 11.5398C0.657288 10.9083 0.660874 10.277 0.662264 9.64575C0.662264 8.94361 0.677654 8.24147 0.739215 7.5424C0.850026 6.27978 1.11474 5.05718 1.76729 3.9547C2.53065 2.66743 3.63876 1.78359 5.02697 1.24467C5.92885 0.893596 6.86766 0.72422 7.82802 0.662628C9.03184 0.585396 10.2371 0.594468 11.4418 0.603536C12.0145 0.607847 12.587 0.612157 13.1592 0.607196ZM13.1592 23.3375H15.3724C16.739 23.3375 18.1026 23.3314 19.4601 23.0973C20.4266 22.928 21.27 22.5245 21.9687 21.8532C22.6274 21.2188 22.9783 20.4027 23.126 19.5066C23.3169 18.3671 23.3846 17.2154 23.3938 16.0636C23.3958 15.7884 23.3979 15.5131 23.4 15.2378L23.4 15.2366C23.4148 13.3036 23.4296 11.3688 23.3785 9.43634C23.3569 8.57098 23.3169 7.71178 23.1691 6.85258C23.0029 5.88559 22.6182 5.03563 21.9625 4.32424C21.3192 3.62826 20.4851 3.26795 19.5647 3.11089C18.4166 2.91688 17.2531 2.85221 16.0926 2.84297L15.4133 2.83799C13.4513 2.82333 11.4895 2.80867 9.5302 2.85837C8.59446 2.883 7.6618 2.92304 6.7353 3.10473C5.75648 3.29875 4.91616 3.73297 4.22975 4.44743C3.65415 5.04795 3.33711 5.7932 3.19244 6.60621C3.00468 7.67174 2.9308 8.75268 2.92465 9.83361C2.92208 10.2488 2.91883 10.6641 2.91558 11.0793C2.89934 13.1554 2.88309 15.2316 2.95235 17.3077C2.96158 17.6157 2.97082 17.9206 2.98929 18.2285C3.02315 18.7952 3.14935 19.3433 3.28478 19.8884C3.59875 21.1326 4.28823 22.0842 5.4579 22.66C6.0058 22.931 6.59063 23.0696 7.19701 23.1343L7.34732 23.1507C8.17173 23.2411 8.99888 23.3317 9.82877 23.3375C10.5645 23.3396 11.3031 23.3389 12.0434 23.3382H12.0448C12.4158 23.3379 12.7874 23.3375 13.1592 23.3375ZM19.5155 13.0923C19.6017 16.3166 16.9299 19.5378 13.0916 19.5378C9.69646 19.5378 6.64917 16.8062 6.64917 13.0923C6.64917 9.58461 9.52101 6.65593 13.107 6.64361C16.8376 6.62821 19.6171 9.8125 19.5155 13.0923ZM13.0885 17.2158C15.3417 17.262 17.2716 15.3804 17.2747 13.1077C17.2778 10.7056 15.3109 8.90711 13.0947 8.90403C10.9061 8.90095 8.91463 10.7025 8.89924 13.083C8.88693 15.4943 10.9831 17.2682 13.0885 17.2158ZM18.2689 6.38472C18.2689 7.17926 19.0015 7.9122 19.7956 7.9122C20.5898 7.9122 21.3254 7.18234 21.3316 6.39396C21.3347 5.59635 20.5898 4.848 19.7956 4.85108C19.0077 4.85108 18.2689 5.59635 18.2689 6.38472Z"/>
</svg>
