<svg width="18" height="24" viewBox="0 0 18 24" fill="none" xmlns="http://www.w3.org/2000/svg">
<path d="M17.7692 10.9542C17.7692 5.87397 13.5469 1.78767 8.44722 2.00855C3.89589 2.22943 0.167085 6.03963 0.00257884 10.6229C-0.0522565 12.9974 0.770274 15.151 2.19599 16.8076L8.22788 23.7101C8.55689 24.0966 9.16008 24.0966 9.48909 23.7101L15.5758 16.8628C16.9467 15.2614 17.7692 13.2183 17.7692 10.9542Z" fill="#CFCED6"/>
<path d="M9.004 7.44C10.1053 7.44 10.9453 7.706 11.524 8.238C12.112 8.76067 12.406 9.554 12.406 10.618V15H10.754V14.09C10.5393 14.4167 10.2313 14.6687 9.83 14.846C9.438 15.014 8.962 15.098 8.402 15.098C7.842 15.098 7.352 15.0047 6.932 14.818C6.512 14.622 6.18533 14.356 5.952 14.02C5.728 13.6747 5.616 13.2873 5.616 12.858C5.616 12.186 5.86333 11.6493 6.358 11.248C6.862 10.8373 7.65067 10.632 8.724 10.632H10.656V10.52C10.656 9.99733 10.4973 9.596 10.18 9.316C9.872 9.036 9.41 8.896 8.794 8.896C8.374 8.896 7.95867 8.96133 7.548 9.092C7.14667 9.22267 6.806 9.40467 6.526 9.638L5.84 8.364C6.232 8.06533 6.70333 7.83667 7.254 7.678C7.80467 7.51933 8.388 7.44 9.004 7.44ZM8.766 13.824C9.20467 13.824 9.592 13.726 9.928 13.53C10.2733 13.3247 10.516 13.0353 10.656 12.662V11.794H8.85C7.842 11.794 7.338 12.1253 7.338 12.788C7.338 13.1053 7.464 13.3573 7.716 13.544C7.968 13.7307 8.318 13.824 8.766 13.824Z" fill="white"/>
</svg>
