<svg width="18" height="23" viewBox="0 0 18 23" fill="none" xmlns="http://www.w3.org/2000/svg">
<path d="M17.7692 9.95423C17.7692 4.87397 13.5469 0.787671 8.44722 1.00855C3.89589 1.22943 0.167085 5.03963 0.00257884 9.62291C-0.0522565 11.9974 0.770274 14.151 2.19599 15.8076L8.22788 22.7101C8.55689 23.0966 9.16008 23.0966 9.48909 22.7101L15.5758 15.8628C16.9467 14.2614 17.7692 12.2183 17.7692 9.95423Z" fill="#CFCED6"/>
<path d="M9.52277 7.44C10.2508 7.44 10.8994 7.59867 11.4688 7.916C12.0474 8.23333 12.5001 8.68133 12.8268 9.26C13.1534 9.83867 13.3168 10.506 13.3168 11.262C13.3168 12.018 13.1534 12.69 12.8268 13.278C12.5001 13.8567 12.0474 14.3047 11.4688 14.622C10.8994 14.9393 10.2508 15.098 9.52277 15.098C9.00944 15.098 8.53811 15.0093 8.10877 14.832C7.68877 14.6547 7.33411 14.3887 7.04477 14.034V15H5.37877V4.612H7.12877V8.434C7.42744 8.10733 7.77744 7.86 8.17877 7.692C8.58944 7.524 9.03744 7.44 9.52277 7.44ZM9.32677 13.6C9.97077 13.6 10.4981 13.3853 10.9088 12.956C11.3288 12.5267 11.5388 11.962 11.5388 11.262C11.5388 10.562 11.3288 9.99733 10.9088 9.568C10.4981 9.13867 9.97077 8.924 9.32677 8.924C8.90677 8.924 8.52877 9.022 8.19277 9.218C7.85677 9.40467 7.59077 9.67533 7.39477 10.03C7.19877 10.3847 7.10077 10.7953 7.10077 11.262C7.10077 11.7287 7.19877 12.1393 7.39477 12.494C7.59077 12.8487 7.85677 13.124 8.19277 13.32C8.52877 13.5067 8.90677 13.6 9.32677 13.6Z" fill="white"/>
</svg>
