<svg width="253" height="40" viewBox="0 0 253 40" fill="none" xmlns="http://www.w3.org/2000/svg">
<path fill-rule="evenodd" clip-rule="evenodd" d="M33.9646 4.70343C30.385 1.7898 25.3902 0 19.8959 0C14.4017 0 9.44849 1.7898 5.82726 4.70343C2.24766 7.61707 0 11.6545 0 16.1082C0 20.5619 2.24766 24.5994 5.82726 27.513C9.44849 30.4266 14.4017 32.2164 19.8959 32.2164C25.3902 32.2164 30.385 30.4266 33.9646 27.513C37.5859 24.5994 39.7919 20.5619 39.7919 16.1082C39.7919 11.6545 37.5859 7.61707 33.9646 4.70343ZM8.7409 27.6795C8.15817 27.3049 7.61707 26.9303 7.07596 26.5141C3.82935 23.8085 1.7898 20.1457 1.7898 16.1082C1.7898 14.9844 1.9563 13.8606 2.24766 12.82H16.8158C19.9376 12.82 18.4808 14.1519 18.4808 14.1519C18.4808 14.1519 16.2747 16.1915 13.6524 19.6878C11.5713 22.3933 9.53174 26.1394 8.7409 27.6795ZM38.0021 16.1082C38.0021 20.1457 35.9625 23.8085 32.7159 26.4724C29.4277 29.1363 24.8907 30.7596 19.8959 30.7596C19.0219 30.7596 18.1478 30.718 17.3153 30.5931C17.7315 29.1779 18.7721 25.7232 20.8117 21.7274C23.4756 16.4828 26.6389 12.4037 29.9688 12.4037C33.2987 12.4037 34.4641 15.1925 34.4641 15.1925H37.9605C38.0021 15.5255 38.0021 15.8169 38.0021 16.1082ZM4.24558 8.7409C5.03642 7.65869 5.99376 6.65973 7.07596 5.74402C10.3642 3.08013 14.9011 1.45682 19.8959 1.45682C24.8907 1.45682 29.4277 3.08013 32.7159 5.74402C33.7981 6.61811 34.7555 7.65869 35.5463 8.7409H4.24558ZM251.904 9.40692C251.322 8.8242 250.531 8.49121 249.698 8.49121C248.866 8.49121 248.075 8.8242 247.492 9.40692C246.91 9.98965 246.577 10.7805 246.577 11.613C246.577 12.4454 246.91 13.2363 247.492 13.819C248.075 14.4017 248.866 14.7347 249.698 14.7347C250.531 14.7347 251.322 14.4017 251.904 13.819C252.487 13.2363 252.82 12.4454 252.82 11.613C252.82 10.7805 252.529 9.98965 251.904 9.40692ZM251.613 13.5276C251.113 14.0271 250.448 14.3185 249.698 14.3185C248.991 14.3185 248.325 14.0271 247.784 13.5276C247.284 13.0282 246.993 12.3622 246.993 11.613C246.993 10.9054 247.284 10.2394 247.784 9.69829C248.283 9.19881 248.949 8.90744 249.698 8.90744C250.406 8.90744 251.072 9.19881 251.613 9.69829C252.112 10.1978 252.404 10.8637 252.404 11.613C252.362 12.3622 252.112 13.0282 251.613 13.5276ZM250.406 11.8624C250.531 11.9873 250.656 12.1538 250.78 12.3203L251.405 13.2776H250.739L250.281 12.57C250.156 12.4035 250.073 12.2787 249.99 12.1538L249.782 11.9457C249.74 11.904 249.657 11.8624 249.615 11.8624H249.407H248.991V13.2776H248.45V9.94775H249.906C250.198 9.94775 250.406 9.98938 250.572 10.031C250.739 10.1142 250.864 10.1975 250.947 10.364C251.03 10.4889 251.072 10.697 251.072 10.8635C251.072 11.1132 250.989 11.3213 250.822 11.4878C250.697 11.6127 250.531 11.7376 250.281 11.7792C250.302 11.8 250.323 11.8104 250.343 11.8208C250.364 11.8312 250.385 11.8416 250.406 11.8624ZM249.823 11.3629C249.99 11.3629 250.156 11.3629 250.239 11.3213C250.323 11.2797 250.406 11.2381 250.489 11.1132C250.531 11.03 250.572 10.9467 250.572 10.8635C250.572 10.7386 250.531 10.6137 250.447 10.5305C250.323 10.4472 250.156 10.4056 249.948 10.4056H248.991V11.3629H249.823ZM48.8657 8.74072L48.3246 11.6544H53.0697L50.6556 24.1413H54.1103L56.5244 11.6544H61.3944L61.9355 8.74072H48.8657ZM74.9636 9.98942C76.0042 10.8219 76.5037 12.029 76.5037 13.5274C76.5037 14.8177 76.1707 15.9416 75.6296 16.9405C75.0469 17.8979 74.1728 18.6471 73.0906 19.1466C72.0084 19.646 70.718 19.8958 69.2196 19.8958H65.8481L65.0156 24.1413H61.5193L64.5162 8.74072H70.5932C72.4662 8.74072 73.923 9.15696 74.9636 9.98942ZM69.3028 17.0238C70.4683 17.0238 71.384 16.7324 72.0084 16.1913C72.6327 15.6502 72.9657 14.8594 72.9657 13.8604C72.9657 13.1112 72.7576 12.5701 72.2581 12.1955C71.7586 11.8208 71.0927 11.6544 70.1769 11.6544H67.4298L66.3476 17.0238H69.3028ZM88.2831 24.1413H91.7794L88.075 8.74072H84.6202L74.8804 24.1413H78.6265L80.5828 20.8531H87.6171L88.2831 24.1413ZM82.1645 18.1476L85.7024 12.1955L86.9928 18.1476H82.1645ZM99.5214 14.7761H106.348L107.555 8.74072H111.051L108.013 24.1413H104.516L105.765 17.8562H98.9386L97.6899 24.1413H94.1936L97.2321 8.74072H100.728L99.5214 14.7761ZM126.285 21.7272L124.204 19.5628C123.122 20.7698 121.79 21.3526 120.208 21.3526C118.876 21.3526 117.836 21.0196 117.086 20.312C116.337 19.6044 115.963 18.6887 115.963 17.4816C115.963 16.3578 116.212 15.3588 116.67 14.4431C117.128 13.5274 117.794 12.8198 118.626 12.2787C119.459 11.7376 120.458 11.4878 121.54 11.4878C123.163 11.4878 124.37 12.0706 125.161 13.2776L127.7 11.1549C127.159 10.2808 126.368 9.61479 125.369 9.11531C124.329 8.65745 123.163 8.40771 121.79 8.40771C119.958 8.40771 118.335 8.82395 116.92 9.61479C115.505 10.4056 114.381 11.5295 113.632 12.903C112.841 14.3182 112.466 15.8583 112.466 17.6065C112.466 18.9384 112.758 20.1039 113.382 21.1028C113.965 22.1018 114.839 22.8926 115.963 23.4754C117.086 24.0165 118.418 24.3078 119.917 24.3078C122.664 24.3911 124.787 23.517 126.285 21.7272ZM137.607 11.5298C136.524 11.5298 135.526 11.7796 134.693 12.3207C133.861 12.8202 133.195 13.5694 132.737 14.4018C132.279 15.3176 132.029 16.3165 132.029 17.4403C132.029 18.6474 132.404 19.5631 133.153 20.2707C133.902 20.9783 134.943 21.3113 136.275 21.3113C137.856 21.3113 139.188 20.7286 140.271 19.5215L142.352 21.6859C140.853 23.4757 138.731 24.3498 135.983 24.3498C134.485 24.3498 133.153 24.0585 132.029 23.5173C130.905 22.9346 130.031 22.1438 129.449 21.1448C128.824 20.1459 128.533 18.9804 128.533 17.6485C128.533 15.9003 128.907 14.3602 129.698 12.945C130.447 11.5715 131.571 10.4476 132.987 9.65678C134.402 8.86594 136.025 8.44971 137.856 8.44971C139.23 8.44971 140.395 8.69945 141.436 9.1573C142.435 9.65678 143.226 10.3228 143.767 11.1968L141.228 13.3196C140.437 12.1126 139.23 11.5298 137.607 11.5298ZM158.044 8.74072L148.887 18.7719L150.885 8.74072H147.43L144.433 24.1413H147.763L156.92 14.1518L154.88 24.1413H158.335L161.374 8.74072H158.044ZM171.904 11.5298C170.822 11.5298 169.823 11.7796 168.991 12.3207C168.117 12.8202 167.451 13.5694 167.034 14.4018C166.577 15.3176 166.327 16.3165 166.327 17.4403C166.327 18.6474 166.701 19.5631 167.451 20.2707C168.2 20.9783 169.24 21.3113 170.572 21.3113C172.154 21.3113 173.486 20.7286 174.568 19.5215L176.649 21.6859C175.151 23.4757 173.028 24.3498 170.281 24.3498C168.783 24.3498 167.451 24.0585 166.327 23.5173C165.203 22.9346 164.329 22.1438 163.746 21.1448C163.122 20.1459 162.83 18.9804 162.83 17.6485C162.83 15.9003 163.205 14.3602 163.996 12.945C164.745 11.5715 165.869 10.4476 167.284 9.65678C168.699 8.86594 170.323 8.44971 172.154 8.44971C173.528 8.44971 174.693 8.69945 175.734 9.1573C176.733 9.65678 177.523 10.3228 178.065 11.1968L175.526 13.3196C174.735 12.1126 173.528 11.5298 171.904 11.5298ZM180.645 8.74072L180.104 11.6544H184.849L182.435 24.1413H185.89L188.304 11.6544H193.174L193.757 8.74072H180.645ZM204.995 24.1413H193.299L196.337 8.74072H207.7L207.118 11.6127H199.251L198.585 14.9426H205.578L205.036 17.7314H198.044L197.336 21.2693H205.578L204.995 24.1413ZM225.265 8.74072L217.94 18.3557L214.152 8.74072H211.322L208.283 24.1413H211.53L213.361 14.8594L216.441 22.518H218.023L223.809 14.9842L222.019 24.1413H225.265L228.262 8.74072H225.265ZM227.763 24.1413L237.503 8.74072H240.999L244.704 24.1413H241.207L240.5 20.8531H233.465L231.509 24.1413H227.763ZM238.585 12.1955L235.047 18.1476H239.875L238.585 12.1955ZM47.6171 40.0002H51.3632C52.1124 40.0002 52.7784 39.8754 53.3195 39.6673C53.8606 39.4591 54.2768 39.1261 54.5682 38.7515C54.8595 38.3353 54.9844 37.8774 54.9844 37.3363C54.9844 36.6704 54.7763 36.1709 54.36 35.8379C53.9438 35.5049 53.3611 35.2968 52.5702 35.2968H50.3642L50.6972 33.7151H55.0676L55.359 32.2583H49.1155L47.6171 40.0002ZM50.1561 36.6704H51.8626C52.2373 36.6704 52.5286 36.7536 52.6951 36.8785C52.9032 37.045 52.9865 37.2531 52.9865 37.5445C52.9865 37.9191 52.8616 38.2104 52.5702 38.4186C52.3205 38.6267 51.9459 38.7099 51.488 38.7099H49.6982L50.1561 36.6704ZM87.3257 32.2583L86.2851 37.3363L90.7804 32.2583H92.6535L91.1551 40.0002H89.2404L90.281 34.9638L85.7856 40.0002H83.9126L85.411 32.2583H87.3257ZM129.823 38.5018H127.492V38.4186L128.699 32.2583H126.785L125.578 38.5018H123.247L124.454 32.2583H122.539L121.041 40.0002H131.405L132.903 32.2583H131.03L129.823 38.5018ZM165.328 35.3801L167.784 32.2583H169.906L166.743 36.046L168.366 40.0002H166.327L165.161 36.9617H163.829L163.205 40.0002H161.29L162.789 32.2583H164.745L164.121 35.3801H165.328ZM197.669 40.0002H203.663L203.954 38.5434H199.834L200.167 36.7952H203.705L203.954 35.3801H200.458L200.791 33.7567H204.745L205.036 32.2583H199.168L197.669 40.0002ZM237.211 35.3801L239.709 32.2583H241.79L238.668 36.046L240.291 40.0002H238.252L237.086 36.9617H235.713L235.13 40.0002H233.174L234.714 32.2583H236.629L236.046 35.3801H237.211Z" fill="#4B2E9F"/>
</svg>
