<svg width="51" height="60" viewBox="0 0 51 60" fill="none" xmlns="http://www.w3.org/2000/svg">
<path fill-rule="evenodd" clip-rule="evenodd" d="M15.1206 10.2875C15.6568 10.2311 16.179 10.2593 16.6729 10.4992C17.0257 10.6544 17.3785 10.7814 17.7595 10.852C17.7686 10.8543 17.7777 10.8562 17.7867 10.8581C17.8338 10.8679 17.8792 10.8775 17.9147 10.9367C17.8634 10.9367 17.8159 10.9405 17.7703 10.9441C17.728 10.9475 17.6873 10.9508 17.6466 10.9508C17.1668 10.9367 16.7011 10.979 16.2354 11.0213C15.7838 11.0778 15.3887 11.233 15.0782 11.5858C15.0633 11.6038 15.0444 11.6218 15.025 11.6403L15.025 11.6404L15.025 11.6404L15.025 11.6404L15.025 11.6404L15.025 11.6404L15.025 11.6404L15.025 11.6404L15.025 11.6404L15.025 11.6404L15.025 11.6404L15.025 11.6404L15.025 11.6404L15.025 11.6404L15.0249 11.6404L15.0249 11.6404C14.9531 11.7091 14.8735 11.7852 14.9512 11.8963C15.0212 11.9762 15.0912 11.9358 15.1612 11.8954C15.19 11.8788 15.2188 11.8622 15.2476 11.8539L15.3111 11.8327C15.6287 11.7259 15.9488 11.6184 16.306 11.6846C16.4846 11.7159 16.6617 11.7556 16.8389 11.7953C17.2215 11.8811 17.6039 11.9668 17.9994 11.9668C18.0417 11.9668 18.0841 11.9809 18.0841 12.0515C18.0558 12.0656 18.0276 12.0797 17.9994 12.0797C17.5619 12.1503 17.1386 12.2208 16.7011 12.3055C16.3906 12.362 16.0943 12.489 15.8262 12.6442C15.5863 12.7994 15.4028 13.0111 15.304 13.2933C15.2899 13.3498 15.2899 13.4062 15.3464 13.4486C15.3887 13.4768 15.431 13.4627 15.4734 13.4345C15.5016 13.4204 15.5298 13.4062 15.558 13.378C15.9532 13.0958 16.4048 13.0111 16.8704 13.0393C16.9961 13.0459 17.1217 13.0557 17.2474 13.0654C17.6587 13.0972 18.0719 13.1291 18.4933 13.0534C18.5074 13.0534 18.5356 13.0676 18.5498 13.0817C18.5167 13.1588 18.4493 13.1757 18.381 13.1928C18.3618 13.1976 18.3426 13.2025 18.324 13.2087C18.2198 13.2434 18.1132 13.2734 18.0063 13.3035C17.8524 13.3468 17.6977 13.3903 17.5478 13.4486C17.1668 13.5756 16.7858 13.7308 16.4471 13.9707C16.1931 14.1542 16.052 14.3941 15.9391 14.6763C15.9353 14.6876 15.9307 14.6997 15.926 14.7123C15.8955 14.7937 15.8573 14.8955 15.9673 14.9444C16.0534 14.9936 16.118 14.9249 16.1706 14.8691C16.1783 14.8609 16.1858 14.8529 16.1931 14.8456L16.2636 14.7751C16.5318 14.5211 16.8563 14.38 17.2232 14.3235C17.4172 14.2903 17.6154 14.2766 17.8146 14.2629C18.1228 14.2416 18.4332 14.2202 18.7332 14.1259C18.821 14.0967 18.9021 14.0809 18.9858 14.0646C19.0231 14.0573 19.0609 14.05 19.1001 14.0413C18.8038 14.253 18.4933 14.4364 18.1687 14.5916C17.7877 14.7751 17.4349 15.0009 17.1386 15.2831C16.8987 15.4948 16.814 15.7911 16.7293 16.0875C16.7011 16.1722 16.7152 16.2568 16.7999 16.2992C16.8987 16.3415 16.9551 16.2709 16.9975 16.2145C17.3503 15.7206 17.8583 15.5089 18.4228 15.396C18.8038 15.3113 19.1707 15.2126 19.5235 15.0573C19.5419 15.05 19.5593 15.0397 19.5765 15.0296L19.5765 15.0296C19.6254 15.0009 19.6725 14.9733 19.7351 15.015C19.723 15.0878 19.6796 15.1189 19.6317 15.1531C19.6239 15.1586 19.616 15.1643 19.6081 15.1702C19.5061 15.2467 19.4054 15.3233 19.3051 15.3994L19.305 15.3995L19.3049 15.3996C19.0725 15.5761 18.8428 15.7506 18.6062 15.9181C18.2816 16.1439 18.0558 16.4403 17.8865 16.7931C17.7877 16.9906 17.7877 17.2023 17.8159 17.4281C17.8159 17.4987 17.8301 17.5692 17.9147 17.5833C17.9835 17.5948 18.0057 17.5411 18.0267 17.4903C18.0316 17.4786 18.0364 17.4669 18.0417 17.4563C18.2816 16.9906 18.6485 16.6802 19.1283 16.4826C19.3541 16.3885 19.5799 16.2819 19.8057 16.1753C19.9186 16.122 20.0315 16.0687 20.1444 16.0169C20.2026 15.9936 20.2537 15.9559 20.3054 15.9177C20.3791 15.8632 20.4542 15.8077 20.5536 15.7911C20.5536 15.8791 20.5089 15.9223 20.4692 15.9606L20.4549 15.9746C20.3602 16.0692 20.2656 16.1622 20.1716 16.2547L20.1715 16.2548C19.985 16.4382 19.8005 16.6196 19.6223 16.8072C19.3259 17.1177 19.086 17.4705 18.9872 17.9079C18.9308 18.1196 18.9449 18.3313 19.0578 18.5288C19.1142 18.6417 19.1989 18.6276 19.2553 18.5147C19.2695 18.4865 19.2836 18.4442 19.2836 18.4159C19.4106 17.922 19.7493 17.5975 20.1585 17.3434C20.2639 17.2757 20.3722 17.211 20.4809 17.1461C20.7799 16.9675 21.0814 16.7875 21.3298 16.5391C21.358 16.5108 21.4003 16.4826 21.4709 16.525C21.4397 16.6185 21.378 16.6967 21.3194 16.7708C21.2984 16.7974 21.2778 16.8235 21.2592 16.8495C21.195 16.9389 21.1285 17.0277 21.0618 17.1169L21.0618 17.1169C20.7915 17.4782 20.5173 17.8447 20.3702 18.2748C20.2714 18.5853 20.2714 18.8957 20.3561 19.2062C20.3605 19.2215 20.3645 19.2379 20.3686 19.2546C20.3911 19.3454 20.4159 19.4461 20.5113 19.4461C20.6426 19.4461 20.6528 19.335 20.6613 19.2409C20.6629 19.2238 20.6644 19.2073 20.6665 19.1921C20.7371 18.7405 20.9629 18.3877 21.2874 18.1055C21.3921 18.0113 21.4985 17.9179 21.6052 17.8244L21.6052 17.8244L21.6052 17.8244L21.6052 17.8243L21.6052 17.8243L21.6052 17.8243L21.6052 17.8243L21.6052 17.8243L21.6053 17.8243L21.6053 17.8243L21.6053 17.8243L21.6053 17.8243L21.6053 17.8242L21.6053 17.8242L21.6053 17.8242L21.6053 17.8242L21.6053 17.8242L21.6054 17.8242C21.9299 17.5394 22.2567 17.2528 22.5434 16.9342C22.5197 17.1241 22.4361 17.274 22.3513 17.426L22.3512 17.4262L22.3512 17.4263L22.3511 17.4264C22.3352 17.455 22.3191 17.4837 22.3035 17.5128C22.0636 17.9644 21.8519 18.4159 21.7108 18.9099C21.5979 19.2909 21.7249 19.6154 21.8943 19.94L21.9019 19.9528C21.9419 20.0202 21.9848 20.0927 22.0777 20.0529C22.1383 20.0287 22.1365 19.9629 22.1347 19.9001V19.9001V19.9L22.1343 19.8835L22.1342 19.8695C22.1483 19.432 22.2612 19.0228 22.5434 18.67C22.656 18.5252 22.7744 18.3861 22.8926 18.2472L22.8926 18.2472C23.1891 17.8988 23.4847 17.5515 23.6865 17.1177C23.6865 17.2588 23.6582 17.3858 23.6159 17.5128L23.5735 17.6397C23.4327 18.0609 23.2952 18.4725 23.1925 18.8957C23.1361 19.1215 23.122 19.3473 23.1502 19.5731C23.1925 19.8836 23.3054 20.1658 23.5453 20.3775C23.63 20.4622 23.7147 20.4198 23.7288 20.3069C23.7429 20.2364 23.7288 20.1658 23.7147 20.1094C23.6582 19.7001 23.7429 19.3191 23.9405 18.9663C24.0204 18.8252 24.102 18.6856 24.1835 18.5461C24.3466 18.267 24.5097 17.9879 24.6602 17.6962C24.6602 17.6821 24.7025 17.6821 24.7166 17.6821C24.7667 17.7322 24.7501 17.7934 24.7359 17.846L24.7307 17.8656C24.6743 18.2184 24.6178 18.5712 24.5755 18.9381C24.5049 19.4743 24.6178 19.9682 24.9847 20.3916L24.9987 20.4081L25.012 20.424L25.0121 20.4242C25.0881 20.5156 25.1677 20.6113 25.2811 20.5609C25.4118 20.5016 25.3525 20.3822 25.3052 20.287C25.2963 20.2691 25.2878 20.252 25.2811 20.2364C25.14 19.8836 25.1541 19.5449 25.2811 19.178C25.3499 18.9769 25.4306 18.7818 25.5113 18.5866C25.6458 18.2614 25.7803 17.9361 25.8597 17.5833C25.8597 17.5692 25.8879 17.5551 25.9161 17.541C25.9585 17.6116 25.9585 17.6962 25.9585 17.7668C25.9585 17.851 25.9569 17.9367 25.9554 18.0229V18.023C25.9522 18.197 25.949 18.3731 25.9585 18.543L25.9663 18.6601C25.9907 19.0325 26.0156 19.4132 26.156 19.7707C26.2689 20.0388 26.4665 20.2364 26.6923 20.4057C26.7628 20.448 26.8334 20.4904 26.904 20.4198C26.9604 20.3634 26.9322 20.2928 26.904 20.2364L26.8616 20.1517C26.6923 19.813 26.6358 19.4602 26.6923 19.0651C26.7274 18.8543 26.7732 18.6471 26.819 18.4404L26.819 18.4403L26.819 18.4403L26.819 18.4403L26.819 18.4403L26.819 18.4402L26.819 18.4402L26.819 18.4402L26.819 18.4402L26.819 18.4401L26.819 18.4401L26.819 18.4401L26.819 18.4401L26.8191 18.4401L26.8191 18.44L26.8191 18.44L26.8191 18.44L26.8191 18.44C26.902 18.0653 26.9846 17.692 27.0027 17.3011C27.0874 17.4846 27.1439 17.6821 27.1721 17.8797C27.2285 18.3877 27.3273 18.8816 27.5531 19.3473C27.7224 19.7001 27.9906 19.94 28.3434 20.0953C28.4139 20.1235 28.4845 20.1376 28.5268 20.067C28.5692 20.0106 28.5409 19.9541 28.5127 19.9118C28.4959 19.8893 28.4768 19.8691 28.4582 19.8494C28.4299 19.8194 28.4027 19.7906 28.3857 19.7566L28.3563 19.706C28.2099 19.4545 28.0611 19.199 28.0611 18.8816C28.0558 18.6235 28.0624 18.3655 28.069 18.1059V18.1058V18.1058V18.1057V18.1056V18.1056V18.1055V18.1054V18.1054V18.1053V18.1052V18.1051V18.1051V18.105V18.1049V18.1048V18.1048V18.1047C28.08 17.6692 28.0912 17.2296 28.047 16.779C28.1363 16.8347 28.155 16.9082 28.1728 16.9783L28.1728 16.9783C28.1776 16.9969 28.1822 17.0153 28.1881 17.033C28.2574 17.2142 28.3186 17.3994 28.3802 17.5856L28.3802 17.5857L28.3802 17.5857L28.3802 17.5858L28.3803 17.5858L28.3803 17.5859L28.3803 17.5859L28.3803 17.586L28.3803 17.5861L28.3803 17.5861L28.3804 17.5862L28.3804 17.5862L28.3804 17.5863L28.3804 17.5863L28.3804 17.5864L28.3804 17.5864L28.3805 17.5865L28.3805 17.5865C28.4818 17.8931 28.584 18.2023 28.7244 18.5006C28.9502 18.9945 29.2747 19.3897 29.8251 19.5167C29.8359 19.5188 29.8467 19.5213 29.8574 19.5238C29.9166 19.5374 29.9727 19.5504 30.0086 19.5026C30.0656 19.4341 30.0304 19.3841 29.9925 19.3302C29.9835 19.3174 29.9743 19.3044 29.9662 19.2909C29.9239 19.2344 29.8815 19.1921 29.8251 19.1498C29.5852 18.9099 29.4582 18.6276 29.3876 18.2889C29.3545 18.13 29.3463 17.9711 29.3381 17.8137C29.3288 17.6356 29.3197 17.4593 29.2747 17.287C29.2042 17.0048 29.1618 16.7084 29.1195 16.4121C29.2042 16.4685 29.2606 16.5532 29.303 16.6237L29.8957 17.7245C30.1779 18.2184 30.5589 18.5853 31.1375 18.67C31.2222 18.6841 31.3351 18.6841 31.3633 18.5853C31.3855 18.5075 31.3289 18.4734 31.2763 18.4418C31.2621 18.4333 31.2483 18.4249 31.2363 18.4159C30.8553 18.1478 30.6295 17.795 30.5166 17.3434C30.4954 17.2588 30.4743 17.1777 30.4531 17.0966L30.4531 17.0965C30.4319 17.0153 30.4107 16.9342 30.3896 16.8495C30.3332 16.5566 30.2229 16.2907 30.1089 16.0158L30.1089 16.0157C30.0801 15.9463 30.0511 15.8764 30.0227 15.8053C30.1147 15.779 30.1455 15.8262 30.1721 15.867L30.1779 15.8758C30.2626 15.9817 30.3437 16.091 30.4249 16.2004C30.506 16.3098 30.5871 16.4191 30.6718 16.525L30.7186 16.5837L30.7562 16.6311C31.0089 16.9499 31.2617 17.2686 31.6173 17.4846C31.8854 17.6398 32.1818 17.7104 32.4922 17.6821C32.5628 17.6821 32.6334 17.6539 32.6475 17.5833C32.6616 17.4987 32.6192 17.4563 32.5487 17.4281C31.9278 17.1741 31.6314 16.6661 31.4056 16.0734C31.2786 15.7488 31.1234 15.4383 30.9258 15.142C30.9198 15.133 30.9113 15.124 30.9024 15.1146C30.8693 15.0798 30.8309 15.0394 30.8976 14.9727C31.0895 15.0968 31.2453 15.2572 31.4011 15.4175C31.4401 15.4575 31.479 15.4976 31.5185 15.5371C31.8008 15.8194 32.083 16.0875 32.4217 16.2851C32.7463 16.4826 33.099 16.5955 33.4801 16.4826C33.5006 16.4758 33.5229 16.4714 33.5448 16.4671C33.6129 16.4538 33.6776 16.4411 33.6776 16.3556C33.6776 16.2638 33.5802 16.2452 33.5098 16.2316L33.4942 16.2286C33.1555 16.1439 32.9156 15.9464 32.6898 15.7065C32.4575 15.4596 32.2812 15.1717 32.1032 14.8811L32.1032 14.881C31.9353 14.6068 31.766 14.3303 31.5467 14.0836C31.6738 14.1259 31.7725 14.1965 31.8713 14.2671C32.2664 14.5493 32.6616 14.8315 33.099 15.0432C33.5365 15.2549 33.974 15.3113 34.4397 15.1138C34.4535 15.1068 34.4674 15.1016 34.4807 15.0966L34.4807 15.0966C34.5213 15.0813 34.556 15.0682 34.5667 15.015C34.5808 14.9303 34.5102 14.888 34.4538 14.8739C34.4185 14.8668 34.3867 14.8598 34.355 14.8527C34.3232 14.8456 34.2915 14.8386 34.2562 14.8315C33.9599 14.8033 33.6776 14.6904 33.466 14.4929C33.1932 14.258 32.9489 13.9946 32.7025 13.729C32.49 13.4999 32.2759 13.2691 32.0407 13.0534C32.3078 13.1506 32.5541 13.2686 32.8064 13.3896L32.9297 13.4486C33.2684 13.6179 33.6353 13.759 34.0022 13.8437C34.3409 13.9284 34.6796 13.8578 34.99 13.7167C35.0888 13.6744 35.2017 13.6179 35.1735 13.505C35.1526 13.4008 35.0702 13.4043 34.9944 13.4076C34.9676 13.4088 34.9416 13.4099 34.9195 13.4062C34.3973 13.378 33.9458 13.1946 33.5506 12.8418C33.2543 12.5736 32.9438 12.3337 32.591 12.1503C32.5823 12.1459 32.5726 12.1419 32.5625 12.1377C32.5068 12.1147 32.438 12.0862 32.4499 11.9668C32.6757 11.9951 32.8874 12.0656 33.099 12.1362C33.5224 12.2773 33.9599 12.4184 34.4114 12.4466C34.8066 12.4607 35.1735 12.3902 35.4698 12.108L35.4841 12.0939C35.5371 12.0419 35.5922 11.988 35.5404 11.9104C35.4981 11.8398 35.4275 11.8539 35.3569 11.8822C34.8489 12.0092 34.3973 11.8681 33.974 11.614C33.8726 11.5555 33.7723 11.4938 33.6716 11.4318L33.6714 11.4317C33.4077 11.2695 33.1411 11.1054 32.845 10.9931C32.8251 10.9851 32.8029 10.9817 32.781 10.9782C32.7254 10.9696 32.6717 10.9612 32.6616 10.8802C32.7745 10.8379 32.8874 10.852 33.0003 10.8802L33.1272 10.9015L33.1272 10.9015C33.4207 10.9506 33.706 10.9984 34.0022 11.0355C34.5526 11.106 35.0606 11.0355 35.4981 10.6685C35.5144 10.655 35.5338 10.6414 35.554 10.6273C35.6385 10.5682 35.7358 10.5003 35.6674 10.3863C35.6104 10.2952 35.5075 10.3328 35.4179 10.3655C35.3966 10.3733 35.376 10.3809 35.3569 10.3863C34.8771 10.5133 34.4256 10.4428 33.974 10.2734C33.8754 10.2357 33.7774 10.1956 33.6792 10.1555C33.2998 10.0003 32.9183 9.84426 32.4922 9.82184C32.464 9.82184 32.4358 9.79361 32.464 9.75128C32.5485 9.70904 32.6409 9.71421 32.7352 9.71949C32.767 9.72126 32.7989 9.72305 32.8309 9.72305C32.9715 9.72305 33.1137 9.72461 33.2564 9.72617C33.5433 9.72931 33.8323 9.73248 34.1151 9.72305C34.6231 9.70894 35.0888 9.5396 35.4557 9.15858C35.4681 9.14622 35.4816 9.13357 35.4956 9.12057C35.5771 9.04448 35.6712 8.95659 35.611 8.84812C35.5492 8.74521 35.4649 8.78489 35.3801 8.82487C35.3485 8.83971 35.3169 8.85459 35.2864 8.86223L35.0324 8.9469C34.7078 9.0598 34.3832 9.07391 34.0586 8.98924C33.4942 8.86223 32.9297 8.76345 32.3652 8.67878C32.4358 8.59411 32.5346 8.59411 32.6192 8.59411C32.8591 8.56588 33.0849 8.53766 33.3248 8.49532C33.3704 8.48689 33.416 8.47865 33.4615 8.47042C33.7966 8.40985 34.1291 8.34975 34.4397 8.21309C34.7925 8.05786 35.0606 7.81796 35.2299 7.45105C35.2338 7.43946 35.2382 7.4276 35.2426 7.41559L35.2427 7.41555C35.2707 7.33983 35.3011 7.25792 35.2158 7.19703C35.1437 7.14892 35.092 7.19308 35.0346 7.24212C35.0247 7.25062 35.0146 7.25926 35.0041 7.26759C34.5385 7.60628 34.0163 7.73328 33.4377 7.64861L33.3474 7.63603C32.9664 7.58265 32.5751 7.52782 32.1959 7.60628C32.1865 7.60628 32.1771 7.59373 32.1677 7.58119C32.163 7.57492 32.1583 7.56865 32.1536 7.56394C32.2026 7.49526 32.279 7.47433 32.3541 7.45372C32.3871 7.44469 32.4198 7.43572 32.4499 7.42282C32.9156 7.26759 33.3672 7.11236 33.8046 6.9148C34.1715 6.74546 34.3832 6.46322 34.5526 6.11042C34.5949 6.02575 34.6231 5.94108 34.609 5.8423C34.5949 5.71529 34.5243 5.67296 34.4256 5.74352C34.3832 5.77174 34.355 5.79996 34.3268 5.82819C33.9458 6.25154 33.4377 6.39266 32.8874 6.39266C32.6757 6.39266 32.464 6.42088 32.2523 6.46322L31.3633 6.63256C31.6066 6.47439 31.85 6.34769 32.1023 6.21629L32.1024 6.21626L32.2241 6.15276C32.5628 5.98342 32.9015 5.78585 33.2119 5.56006C33.4801 5.3625 33.6494 5.10848 33.7623 4.79802C33.8046 4.68513 33.8187 4.57223 33.7905 4.47345C33.7623 4.37467 33.6917 4.34644 33.6071 4.417C33.5742 4.44167 33.5509 4.47112 33.526 4.50257L33.526 4.50262C33.5081 4.52514 33.4895 4.54869 33.466 4.57223C33.2119 4.88269 32.8874 5.09437 32.4781 5.19315C32.4085 5.21055 32.339 5.22761 32.2695 5.24464C31.8881 5.33816 31.5097 5.43092 31.1516 5.57417L31.138 5.58114C31.0822 5.61012 31.005 5.65011 30.9399 5.54595C30.9541 5.51773 30.9682 5.4895 30.9964 5.46128C31.3198 5.25766 31.6228 5.01337 31.9228 4.77157C31.9763 4.72848 32.0296 4.68548 32.083 4.64279C32.2664 4.50167 32.4076 4.33233 32.5346 4.13477C32.7039 3.86664 32.7604 3.57029 32.7604 3.25983C32.7604 3.18927 32.7321 3.11872 32.6616 3.1046C32.5769 3.07638 32.5346 3.13283 32.4922 3.18927C32.4838 3.20191 32.4754 3.21328 32.4673 3.22415C32.4484 3.24971 32.4316 3.27247 32.4217 3.30217C32.2523 3.71141 31.9278 3.95131 31.5609 4.12066C31.4121 4.18864 31.2621 4.25151 31.1124 4.31427C30.7649 4.45994 30.4187 4.60502 30.0932 4.81213C30.0826 4.82272 30.0641 4.81743 30.0317 4.80817C30.0209 4.80508 30.0086 4.80155 29.9944 4.79802C30.1272 4.65576 30.26 4.52625 30.3885 4.40092L30.3885 4.40088L30.3886 4.40084C30.4512 4.33971 30.5129 4.27957 30.573 4.21944L30.5731 4.21942C30.8835 3.90896 31.194 3.59851 31.4056 3.20339C31.5609 2.90704 31.6314 2.59658 31.5467 2.25789C31.5326 2.18733 31.5044 2.08855 31.4197 2.07444C31.321 2.06033 31.2927 2.15911 31.2786 2.24378C31.1375 2.79414 30.7706 3.13283 30.2908 3.38684C29.8674 3.61263 29.4864 3.89487 29.1477 4.21944C29.139 4.22819 29.1308 4.23876 29.1225 4.24951C29.0907 4.29076 29.0567 4.33477 28.9784 4.29C28.9884 4.18957 29.0485 4.11058 29.1077 4.03269L29.1078 4.03266L29.1078 4.03263L29.1078 4.03261L29.1078 4.03259C29.1318 4.00106 29.1556 3.96972 29.176 3.9372C29.2813 3.77648 29.3996 3.62228 29.5182 3.46778C29.7016 3.22888 29.8856 2.98924 30.0227 2.72358C30.2343 2.31434 30.3896 1.89099 30.1779 1.4253C30.1732 1.4135 30.1689 1.40092 30.1645 1.38814C30.1426 1.32447 30.119 1.25595 30.0368 1.25595C29.9239 1.25595 29.8957 1.36885 29.8816 1.45352C29.877 1.47869 29.8728 1.50385 29.8686 1.52896C29.8469 1.65871 29.8255 1.78686 29.7545 1.9051C29.5993 2.20145 29.3876 2.44135 29.1336 2.65302C29.0922 2.6888 29.0505 2.72457 29.0087 2.76044C28.7373 2.99345 28.4609 3.23069 28.2164 3.49973C28.2088 3.50983 28.2017 3.52084 28.1944 3.53201C28.1612 3.58332 28.1256 3.63833 28.0329 3.62674C28.0723 3.44961 28.1528 3.29992 28.2314 3.15376L28.2315 3.15375L28.2315 3.15373C28.2656 3.09031 28.2994 3.02754 28.3293 2.96349C28.5409 2.56835 28.7244 2.15911 28.8373 1.70753C28.9078 1.38296 28.8373 1.08661 28.7244 0.790263L28.7213 0.78312C28.6793 0.684848 28.6222 0.551372 28.4845 0.592697C28.3978 0.614369 28.3943 0.702607 28.391 0.787129V0.787188C28.39 0.812719 28.389 0.837909 28.3857 0.860822V0.959605C28.3575 1.32651 28.2446 1.65108 28.0047 1.94743C27.9203 2.052 27.8336 2.15496 27.7467 2.25804L27.7467 2.25807L27.7467 2.25813L27.7466 2.2582L27.7465 2.2583C27.4701 2.58637 27.1926 2.91568 26.9886 3.30217L26.9857 3.31134C26.9722 3.35375 26.9536 3.41213 26.8616 3.37273C26.8828 3.30922 26.9004 3.24572 26.9181 3.18222C26.9357 3.11872 26.9533 3.05521 26.9745 2.99171L27.0056 2.89863C27.1502 2.46561 27.2916 2.04241 27.3838 1.59464C27.4825 1.12895 27.3696 0.719703 27.1156 0.338684C27.0733 0.282237 27.031 0.225789 26.9886 0.183454C26.904 0.112895 26.8052 0.141118 26.8052 0.254013C26.8052 0.291259 26.8091 0.328504 26.8128 0.363674C26.8161 0.395131 26.8193 0.424928 26.8193 0.451579C26.8757 0.973716 26.7628 1.45352 26.4665 1.89099C26.2407 2.22967 26.0431 2.58247 25.902 2.96349C25.8948 2.97801 25.8894 2.99441 25.8837 3.01171L25.8837 3.01174L25.8837 3.01175L25.8836 3.01177C25.8672 3.06169 25.8483 3.11915 25.775 3.16105C25.8315 2.69536 25.8879 2.27201 25.9444 1.84865C25.9867 1.53819 26.0008 1.21362 25.9302 0.903157C25.8456 0.53625 25.6057 0.268125 25.3517 0H25.2105C25.1964 0.127007 25.2246 0.254013 25.267 0.366908C25.4504 0.790263 25.3517 1.21362 25.1964 1.60875C25.1561 1.71096 25.1147 1.81266 25.0734 1.91424C24.8979 2.34558 24.7233 2.77473 24.632 3.23161C24.6037 3.14694 24.6037 3.06227 24.6037 2.96349C24.615 2.55707 24.5902 2.15065 24.5653 1.74423C24.5591 1.64262 24.5529 1.54101 24.5473 1.43941C24.5049 0.917269 24.2933 0.493914 23.8558 0.183454C23.8435 0.176082 23.8308 0.167427 23.8177 0.158532C23.7558 0.116339 23.6858 0.0687331 23.6159 0.127007C23.5297 0.188564 23.5832 0.271604 23.6263 0.338642L23.6264 0.338708C23.6327 0.348488 23.6387 0.357926 23.6441 0.366908C23.8558 0.733815 23.8981 1.12895 23.8558 1.5523C23.8276 1.74987 23.7852 1.94743 23.7288 2.145C23.6801 2.31196 23.652 2.48236 23.6225 2.66126V2.66128C23.5921 2.84526 23.5602 3.03824 23.503 3.24572L23.4896 3.20127C23.4548 3.0862 23.4324 3.01219 23.4324 2.94937C23.3901 2.54013 23.3054 2.145 23.2067 1.74987C23.0797 1.22773 22.8115 0.790263 22.3176 0.53625C22.2329 0.493914 22.1483 0.451579 22.0777 0.53625C22.0072 0.606809 22.0636 0.69148 22.12 0.747927C22.5293 1.22773 22.5857 1.77809 22.5152 2.37079C22.4728 2.75181 22.4587 3.13283 22.5293 3.51385L22.5337 3.53919C22.548 3.6183 22.5647 3.71114 22.5011 3.83842C22.4711 3.75843 22.4428 3.68553 22.4164 3.6172L22.4164 3.61719C22.3682 3.49264 22.3258 3.38329 22.2894 3.27395C22.1765 2.89293 22.0354 2.52602 21.8801 2.15911C21.6826 1.65108 21.3439 1.27007 20.8076 1.11483C20.723 1.08661 20.6242 1.0725 20.5677 1.17128C20.5254 1.25595 20.596 1.3124 20.6665 1.36885C21.0899 1.73576 21.2451 2.21556 21.2592 2.75181C21.2592 3.16105 21.3298 3.55618 21.4427 3.95131L21.4486 3.96881C21.4761 4.04963 21.5084 4.14437 21.4427 4.27589C21.3513 4.11137 21.2717 3.95869 21.1963 3.81402C21.1553 3.73532 21.1155 3.65899 21.0758 3.58441C21.0473 3.5309 21.0191 3.477 20.9908 3.42294L20.9906 3.42252C20.78 3.02043 20.5648 2.60944 20.2291 2.28612C19.9892 2.06033 19.7069 1.94743 19.3824 1.89099C19.2977 1.87687 19.213 1.87687 19.1707 1.96154C19.1199 2.05042 19.1948 2.0936 19.2617 2.1322L19.2836 2.145C19.6081 2.37079 19.8622 2.65302 19.9892 3.03404C20.0542 3.24324 20.1086 3.45397 20.1628 3.66421C20.2732 4.09218 20.3831 4.51812 20.5819 4.92503C20.4831 4.85447 20.4125 4.78391 20.342 4.68513C20.222 4.52989 20.102 4.37111 19.9821 4.21234C19.8621 4.0536 19.7422 3.89485 19.6223 3.73964C19.3682 3.42918 19.0719 3.18927 18.6909 3.01993C18.4651 2.92115 18.2252 2.93526 17.9853 2.96349C17.9429 2.96349 17.9006 2.99171 17.8865 3.04816C17.8724 3.09049 17.9147 3.13283 17.9429 3.16105C18.0135 3.20339 18.0841 3.23161 18.1546 3.25983C18.4369 3.41506 18.6768 3.61263 18.832 3.89487C18.9469 4.10372 19.0443 4.32223 19.1423 4.54183C19.3091 4.91574 19.4773 5.29278 19.7351 5.63062C19.6449 5.65641 19.6017 5.6115 19.5734 5.58203L19.5658 5.57417C19.4176 5.44011 19.273 5.30604 19.1283 5.17198C18.9837 5.03792 18.839 4.90386 18.6909 4.7698C18.4369 4.5299 18.1405 4.33233 17.8159 4.19121C17.5478 4.06421 17.2656 4.07832 16.9833 4.13477C16.9128 4.14888 16.8563 4.19121 16.8422 4.26177C16.8422 4.34644 16.9128 4.37467 16.9692 4.38878C17.5055 4.5299 17.8724 4.88269 18.1405 5.34838C18.3381 5.67296 18.5639 5.98342 18.7897 6.29388C18.8067 6.31947 18.8289 6.34249 18.8528 6.36721C18.9079 6.42428 18.9718 6.49045 19.0013 6.61845C18.6627 6.37859 18.3805 6.18105 18.0983 5.98352L18.0982 5.98342C17.7172 5.71529 17.322 5.4895 16.8563 5.37661C16.5741 5.30605 16.3201 5.39072 16.0661 5.47539C16.0096 5.4895 15.9673 5.53184 15.9673 5.6024C15.9673 5.67296 16.0096 5.70118 16.0661 5.7294C16.0943 5.74352 16.1366 5.75763 16.1649 5.75763C16.7152 5.79996 17.1103 6.11042 17.4349 6.50555C17.7454 6.87246 18.0558 7.22526 18.451 7.49338C18.4578 7.49791 18.4653 7.50208 18.4729 7.50629L18.4729 7.5063L18.4729 7.50631L18.473 7.50633C18.5127 7.52834 18.5548 7.55162 18.5074 7.6345C18.3558 7.60924 18.2269 7.55005 18.0902 7.48731L18.0417 7.46516C17.957 7.42279 17.8729 7.37978 17.7889 7.33681L17.7888 7.33676C17.4812 7.17937 17.1748 7.02262 16.8422 6.90069C16.4612 6.77368 16.0802 6.70312 15.6851 6.83013C15.558 6.87246 15.431 6.92891 15.3323 7.02769C15.2476 7.11236 15.2899 7.19703 15.4028 7.22526C15.4302 7.23437 15.4575 7.23171 15.4886 7.22869C15.5057 7.22703 15.5239 7.22526 15.5439 7.22526C15.9955 7.21115 16.3906 7.35226 16.7434 7.62039C17.0539 7.86029 17.3644 8.10019 17.6748 8.35421C17.7114 8.38165 17.7525 8.40316 17.7941 8.42499C17.8809 8.47051 17.9704 8.51741 18.0276 8.62233C17.9285 8.6664 17.8379 8.63306 17.756 8.60289C17.7329 8.59441 17.7106 8.58618 17.6889 8.57999C17.5257 8.53428 17.3624 8.48251 17.1977 8.43029L17.1977 8.43028L17.1976 8.43027L17.1976 8.43026L17.1976 8.43025L17.1975 8.43024L17.1975 8.43024L17.1975 8.43023L17.1975 8.43022L17.1974 8.43021L17.1974 8.4302L17.1974 8.43019L17.1973 8.43018L17.1973 8.43018L17.1973 8.43017L17.1973 8.43016L17.1972 8.43015L17.1972 8.43014C17.0062 8.36959 16.8134 8.30844 16.6164 8.25542C16.1366 8.12842 15.6568 8.1143 15.2053 8.38243C15.1788 8.39893 15.1486 8.41312 15.1182 8.42734C15.0189 8.47391 14.9188 8.52083 14.9512 8.65055C14.9844 8.76122 15.0958 8.75039 15.1967 8.74056H15.1967H15.1967H15.1967L15.1967 8.74055C15.2245 8.73785 15.2515 8.73522 15.2758 8.73522C15.6145 8.72111 15.9532 8.74934 16.2636 8.90457C16.4497 8.99758 16.6311 9.10286 16.8145 9.20928L16.8146 9.20934L16.8147 9.2094L16.8148 9.20943C17.1878 9.42589 17.5689 9.64707 18.0135 9.7795C17.8621 9.83772 17.7492 9.81908 17.6509 9.80285L17.6508 9.80284C17.63 9.7994 17.6099 9.79608 17.5902 9.79361C17.4257 9.77306 17.2612 9.74651 17.0964 9.7199C16.6956 9.6552 16.2926 9.59016 15.8826 9.61016C15.5298 9.62427 15.2194 9.73717 14.9512 9.96295L14.9401 9.97172L14.9283 9.98085C14.8591 10.0344 14.7721 10.1016 14.8101 10.2029C14.8927 10.3444 14.995 10.3183 15.0758 10.2977L15.0758 10.2977L15.0758 10.2977C15.0917 10.2937 15.1067 10.2898 15.1206 10.2875ZM22.8962 5.22138C23.6159 4.86858 24.3921 4.68513 25.1823 4.67102C26.6641 4.6569 27.9765 5.13671 29.0772 6.15276C30.0086 6.99947 30.573 8.05786 30.8129 9.2997C30.9823 10.1605 30.9399 11.0213 30.7 11.8822C30.4601 12.7289 30.0509 13.505 29.4723 14.1542C28.4563 15.2831 26.9745 16.1016 25.3375 16.031C23.6865 16.0734 22.3317 15.4242 21.231 14.253C20.4266 13.3921 19.9327 12.3479 19.7634 11.1483C19.3965 8.62233 20.7089 6.30799 22.8962 5.22138ZM50.259 16.5955C50.5131 16.4544 50.5977 16.4967 50.6683 16.779C50.6744 16.8035 50.6792 16.828 50.684 16.8524L50.684 16.8525C50.7012 16.9403 50.718 17.0262 50.7953 17.1035V18.1196L50.6259 18.6276C50.3719 19.3191 49.9204 19.8412 49.243 20.1658C48.6362 20.4621 47.987 20.6174 47.3097 20.702C47.0286 20.74 46.7435 20.7494 46.4587 20.7587C46.2143 20.7667 45.9702 20.7748 45.7291 20.8008C45.3725 20.8384 45.0221 20.8135 44.6696 20.7885L44.6695 20.7885C44.4921 20.7759 44.3141 20.7632 44.1345 20.7585C43.8336 20.7498 43.534 20.7357 43.2349 20.7216C42.5663 20.6901 41.9002 20.6587 41.2275 20.6879C40.5642 20.7162 39.9151 20.8008 39.2942 21.0125C38.5886 21.2524 38.1088 21.704 37.9818 22.466C37.9394 22.7341 37.9959 23.0023 38.0805 23.2563C38.2216 23.722 38.4474 24.1453 38.6873 24.5687L38.7518 24.6823L38.8122 24.7886C39.1951 25.4615 39.5759 26.1308 39.8304 26.8689C39.9997 27.391 40.1267 27.9132 40.1126 28.4635C40.1086 28.5886 40.1092 28.7126 40.1098 28.8357C40.1112 29.1431 40.1126 29.4454 40.0421 29.7477C39.8727 30.5239 39.534 31.2154 38.9837 31.7939C38.4333 32.3866 37.756 32.8382 37.0927 33.2757C36.6074 33.5946 36.6126 33.6002 36.9878 34.0019L37.008 34.0236C37.51 34.5591 38.0738 35.024 38.6365 35.4881L38.6365 35.4881L38.6374 35.4888L38.6377 35.489L38.6379 35.4893L38.6382 35.4895L38.6384 35.4897L38.6387 35.4899L38.6389 35.4901L38.6392 35.4903C38.7874 35.6125 38.9355 35.7347 39.0825 35.8581C39.5764 36.2674 40.0703 36.7049 40.4372 37.2552C40.4795 37.3117 40.5219 37.3681 40.5501 37.4246C40.6207 37.5657 40.5783 37.6503 40.4231 37.6645C40.2538 37.6786 40.0985 37.6786 39.9433 37.6786H13.7517H10.633C10.6022 37.6786 10.5693 37.6813 10.5359 37.684C10.4164 37.6938 10.2899 37.7042 10.2238 37.5939C10.1481 37.4642 10.2297 37.3676 10.3101 37.2725L10.3101 37.2725C10.3347 37.2434 10.3592 37.2144 10.379 37.1847C10.7177 36.6907 11.1693 36.2815 11.6208 35.9005C11.7994 35.7528 11.9797 35.6085 12.1596 35.4644L12.1598 35.4642L12.1599 35.4642C12.7191 35.0164 13.2748 34.5715 13.7658 34.0377L13.8082 33.9954C14.1469 33.6426 14.1328 33.5861 13.7235 33.318C13.6401 33.2624 13.5565 33.2072 13.4729 33.1521C12.8778 32.7594 12.2852 32.3684 11.7902 31.8363C11.2681 31.2577 10.9153 30.5944 10.7459 29.8183C10.4637 28.52 10.7036 27.3064 11.2539 26.1351C11.4515 25.7212 11.6742 25.3198 11.8968 24.9184L11.8969 24.9182C12.0082 24.7176 12.1195 24.5169 12.2277 24.3147C12.4676 23.8631 12.6933 23.4115 12.7639 22.9035C12.8345 22.4096 12.6933 21.9721 12.3688 21.5911C12.0301 21.2101 11.5926 21.0125 11.1128 20.9137C9.87098 20.6597 8.62914 20.6456 7.37319 20.7585C7.28852 20.7726 7.18973 20.7726 7.10506 20.7726L6.38 20.7937L5.65154 20.8149C4.98829 20.8432 4.31092 20.7867 3.63355 20.7303C3.04085 20.6738 2.47638 20.575 1.92602 20.3634C0.980527 20.0106 0.317271 19.3755 0.063258 18.3877C0.0350344 18.303 -0.0637484 17.541 0.063258 16.8213C0.119705 16.4967 0.218488 16.4826 0.486613 16.6096C0.811185 16.7648 1.14987 16.906 1.48855 17.0189C1.96836 17.1882 2.46227 17.3011 2.95618 17.3999C3.72813 17.5414 4.50007 17.5656 5.28271 17.5902L5.51042 17.5974C5.65557 17.6015 5.80072 17.6078 5.94586 17.6141C6.30874 17.63 6.67162 17.6458 7.0345 17.6257C7.63661 17.588 8.23872 17.588 8.84083 17.588C9.14188 17.588 9.44293 17.588 9.74397 17.5833C10.1814 17.5833 10.6189 17.6257 11.0564 17.6821C11.1748 17.699 11.2983 17.7007 11.4208 17.7024H11.4209C11.5027 17.7036 11.5841 17.7047 11.6632 17.7103C12.8768 17.8373 14.0763 18.0349 15.0641 18.8534C15.5298 19.2344 15.8685 19.7283 16.1649 20.2505C16.3624 20.6174 16.5318 21.0125 16.6023 21.4217C16.687 21.831 16.7152 22.2402 16.7011 22.6636C16.6621 23.7419 16.2524 24.7126 15.8462 25.6747C15.8112 25.7576 15.7762 25.8405 15.7415 25.9234C15.7003 26.0223 15.6585 26.1211 15.6167 26.2202L15.6165 26.2205C15.3716 26.7999 15.1241 27.3854 14.9795 28.012C14.7396 29.0562 15.0218 29.9312 15.8121 30.6368C16.2137 30.983 16.2212 30.9759 16.5815 30.6286L16.6023 30.6085C17.0506 30.171 17.4342 29.6769 17.8144 29.1874L17.8144 29.1874L17.8145 29.1873L17.8146 29.1872L17.8146 29.187L17.8147 29.1869L17.8148 29.1868L17.8149 29.1867L17.815 29.1866L17.815 29.1865L17.8151 29.1864L17.8152 29.1863L17.8153 29.1862L17.8154 29.1861L17.8154 29.186L17.8155 29.1859L17.8156 29.1858L17.8157 29.1857L17.8158 29.1856L17.8158 29.1855C17.9379 29.0284 18.0595 28.8717 18.1828 28.7176C18.7191 28.0543 19.2695 27.391 19.9186 26.8266C20.4125 26.4032 20.9629 26.1069 21.5556 25.8811C22.36 25.5706 23.1925 25.4013 24.0393 25.2743C24.8295 25.1614 25.6198 25.1473 26.4242 25.2319C27.412 25.3307 28.3716 25.5565 29.303 25.9234C29.9803 26.1915 30.573 26.5867 31.1093 27.0947C31.7867 27.7297 32.3511 28.4635 32.9156 29.1974C33.3248 29.7336 33.7623 30.2557 34.2562 30.7214C34.4961 30.9472 34.5385 30.9613 34.7925 30.7497C35.2582 30.3545 35.6533 29.903 35.7662 29.282C35.865 28.7317 35.8368 28.1813 35.6674 27.6451C35.4749 27.0217 35.2169 26.4221 34.9591 25.8231C34.8201 25.5001 34.6811 25.1772 34.5526 24.8509C34.355 24.357 34.2139 23.8349 34.0869 23.3268C34.0319 23.1181 34.0369 22.8922 34.0418 22.6692V22.669V22.6689V22.6687V22.6685V22.6683V22.6682V22.668V22.6678V22.6676V22.6675V22.6673V22.6671C34.0432 22.6044 34.0445 22.5419 34.0445 22.4801C34.0163 20.8714 34.7078 19.6295 35.9355 18.6558C36.4577 18.2325 37.1068 18.049 37.7701 17.9079C39.026 17.6539 40.2961 17.5833 41.5662 17.5833H41.5662C42.2295 17.5833 42.8927 17.5833 43.5559 17.6257C44.4069 17.6765 45.2578 17.6244 46.1088 17.5723L46.3924 17.5551C47.733 17.4845 49.0454 17.2164 50.259 16.5955ZM1.40388 21.2665C0.909968 21.0972 0.740627 21.2242 0.740627 21.7181C0.726515 22.0709 0.839409 22.3955 1.00875 22.6777C1.60145 23.7502 2.41993 24.5969 3.52066 25.1614C4.05691 25.4295 4.59316 25.6412 5.15763 25.8105C5.82089 26.0081 6.49825 26.1633 7.20385 26.1915C7.51378 26.2009 7.81746 26.1978 8.12322 26.1947H8.12332H8.12343H8.12353H8.12362H8.12372H8.12382H8.12391H8.12401H8.12411H8.12421H8.12431H8.12441H8.1245H8.1246H8.1247H8.1248H8.12489H8.12499H8.12509H8.12519C8.27819 26.1931 8.43172 26.1915 8.58681 26.1915C9.06661 26.1915 9.5323 26.0928 9.95565 25.8811C10.5625 25.5847 11.0423 25.1614 11.0987 24.4417C11.1552 23.6373 10.9576 23.0728 10.2238 22.6495C9.61697 22.2967 8.9396 22.1838 8.24812 22.1697C6.78049 22.1415 5.31286 22.1556 3.84523 22.1697C3.39365 22.1697 2.98441 22.0427 2.58928 21.8451C2.46898 21.7849 2.34998 21.7209 2.23111 21.6568L2.23109 21.6568L2.23108 21.6568L2.23106 21.6568L2.23105 21.6568L2.23104 21.6568L2.23102 21.6568L2.23101 21.6568L2.231 21.6568L2.23098 21.6568L2.23097 21.6568L2.23096 21.6568L2.23094 21.6568L2.23093 21.6568L2.23092 21.6568L2.23089 21.6567C1.95938 21.5105 1.68845 21.3646 1.40388 21.2665ZM5.11529 29.4937C5.99023 29.8748 6.92161 30.0864 7.96588 30.1147C8.04522 30.1024 8.14039 30.0929 8.2434 30.0825L8.24348 30.0825L8.24366 30.0825L8.2437 30.0825H8.24372C8.37883 30.0689 8.52742 30.054 8.67148 30.03C9.36296 29.9171 9.7722 29.4937 9.85687 28.8305C9.92743 28.3224 9.71575 27.8991 9.30651 27.6027C9.06661 27.4334 8.78437 27.3064 8.47391 27.2641C7.79654 27.1653 7.13329 27.0947 6.45592 27.0665C6.319 27.063 6.18296 27.0612 6.04758 27.0595H6.04752H6.0475H6.04748H6.04747H6.04745H6.04744H6.04742H6.04741H6.04739H6.04737H6.04736H6.04734H6.04733H6.04731H6.0473H6.04728H6.04726H6.04725H6.04723H6.04722C5.63851 27.0542 5.23578 27.0489 4.83306 26.9959C4.29681 26.9254 3.81701 26.7843 3.39365 26.4597C3.34233 26.4212 3.29231 26.3827 3.2428 26.3446C3.12893 26.257 3.01776 26.1715 2.89974 26.0928C2.75862 25.994 2.60339 25.9093 2.40582 25.9093C2.25059 25.9234 2.15181 25.994 2.12359 26.1492C2.09536 26.3045 2.10947 26.4456 2.1377 26.5867C2.29293 27.4193 2.78684 28.012 3.42187 28.52C3.9299 28.9293 4.5226 29.2256 5.11529 29.4937ZM8.53036 33.5015C6.89339 33.3604 5.45398 32.7959 4.38148 31.4835C4.15569 31.2013 3.98635 30.8767 3.94401 30.5098L3.94097 30.4917C3.92801 30.4149 3.91681 30.3485 3.9299 30.2699C3.94401 30.1288 4.02868 30.0724 4.1698 30.1288C4.18343 30.1356 4.19788 30.1424 4.21276 30.1494L4.21292 30.1495L4.21298 30.1495L4.213 30.1496C4.25967 30.1716 4.31051 30.1955 4.35326 30.2276C4.90362 30.5804 5.51043 30.7215 6.14546 30.7779C6.34042 30.7939 6.53538 30.812 6.73065 30.8302C7.22798 30.8765 7.72736 30.923 8.23401 30.9332C8.72792 30.9332 9.22184 31.032 9.67342 31.2719C9.92743 31.413 10.125 31.6105 10.2379 31.8787C10.4919 32.4714 10.1814 33.1064 9.51819 33.3322C9.4773 33.3441 9.43683 33.3562 9.39667 33.3683L9.39619 33.3684C9.10384 33.456 8.828 33.5387 8.53036 33.5015ZM38.0523 40.0353C39.0543 40.5715 39.8586 41.3053 40.5078 42.2508C40.9735 42.9282 41.2275 43.6902 41.3827 44.4664L41.4072 44.5878C41.499 45.0413 41.5909 45.4958 41.552 45.9622C41.5238 46.2021 41.5238 46.4561 41.5379 46.696C41.5657 47.4182 41.4158 48.0994 41.2631 48.7933L41.2557 48.8269C41.0158 49.8712 40.5642 50.8308 40.0139 51.734C39.7598 52.1573 39.4635 52.5524 39.1389 52.9335C38.2217 54.006 37.1774 54.9232 36.0061 55.6994C35.7097 55.8969 35.4134 56.0804 35.1171 56.2639L31.6738 58.2819C27.7648 60.5821 22.9103 60.568 19.0155 58.2677C17.3361 57.2799 15.8121 56.3626 15.2053 55.9816C14.4291 55.4877 13.7094 54.9373 13.0179 54.3305C12.27 53.6673 11.6067 52.9335 11.0282 52.1291C10.4072 51.24 9.94154 50.2804 9.61697 49.2503C9.2924 48.2342 9.15128 47.1899 9.19361 46.1175C9.23595 45.045 9.37707 43.9866 9.85687 42.9987C10.4637 41.7569 11.3668 40.8255 12.5663 40.1623C13.3989 39.6966 14.3021 39.372 15.2476 39.3014C16.2636 39.2168 17.2938 39.1744 18.3099 39.4284C18.4066 39.4534 18.5033 39.4763 18.5997 39.4991L18.5999 39.4991L18.6 39.4992L18.6002 39.4992L18.6003 39.4992L18.6005 39.4993L18.6006 39.4993L18.6007 39.4994L18.6009 39.4994L18.601 39.4994L18.6012 39.4995L18.6013 39.4995L18.6015 39.4995L18.6016 39.4996L18.6018 39.4996C18.9408 39.5798 19.2759 39.659 19.594 39.8236C20.2714 40.1905 20.7653 40.7126 21.1322 41.3618C21.5556 42.0815 21.7531 42.8717 21.8378 43.7043C21.866 44.0712 21.7955 44.424 21.7108 44.7768C21.6544 45.0026 21.5415 45.1861 21.3721 45.3554C21.0052 45.7223 20.596 46.0046 20.1303 46.2303C19.8763 46.3432 19.6082 46.3997 19.34 46.4279C18.9872 46.4561 18.6062 46.1457 18.5215 45.7929C18.4951 45.6553 18.4746 45.5177 18.4541 45.3801C18.4199 45.1508 18.3857 44.9215 18.324 44.6922C18.2252 44.297 18.0982 43.916 17.8583 43.5773C17.4632 43.027 16.9269 42.8012 16.2495 42.8435C15.6427 42.8717 15.1347 43.0693 14.6831 43.4644C14.5138 43.6055 14.3727 43.7608 14.2598 43.9442C13.8505 44.551 13.6247 45.2284 13.5118 45.9481C13.4413 46.4138 13.4272 46.8654 13.4413 47.3311C13.4836 48.5447 13.8787 49.6313 14.6126 50.6191C15.3464 51.607 16.306 52.3549 17.3503 52.9899C18.8743 53.9072 20.5113 54.5704 22.1906 55.149C22.2752 55.1772 22.3881 55.2054 22.5009 55.2337L22.5011 55.2337C22.5011 54.8077 22.5018 53.8801 22.5028 52.6717V52.6705V52.6696V52.6688V52.6681V52.6655C22.5061 48.6694 22.5119 41.6116 22.5011 39.4567C22.5011 39.1885 22.7269 38.9627 22.995 38.9627H27.7083C27.9906 38.9627 28.2023 39.1885 28.2023 39.4567C28.174 42.1097 28.2023 55.403 28.2023 55.403C29.684 54.9373 31.2645 54.133 32.6475 53.3992C33.8752 52.75 35.0183 51.9456 35.9073 50.859C36.5423 50.0829 36.9798 49.2079 37.1774 48.206C37.3044 47.5851 37.3044 46.9501 37.2479 46.3291C37.2056 45.7364 37.0786 45.1437 36.8246 44.5934C36.4577 43.8031 35.9355 43.1681 35.0606 42.9423C34.5526 42.8153 34.0163 42.7729 33.5083 43.027C33.2261 43.1681 33.0285 43.3798 32.8592 43.6479C32.5064 44.1982 32.3652 44.8333 32.2806 45.4683C32.2806 45.5248 32.2806 45.5953 32.2665 45.6659C32.1536 46.2445 31.6738 46.5408 31.1093 46.3997C30.7142 46.3009 30.3473 46.1175 30.0086 45.8917C29.8392 45.7788 29.684 45.6518 29.5288 45.5248C29.1901 45.2566 29.0207 44.8897 28.9643 44.4523C28.8091 43.2386 29.1195 42.1379 29.7404 41.1219C30.2767 40.2328 31.0528 39.6966 32.0689 39.4567C32.7604 39.2873 33.4519 39.2168 34.1433 39.1885C34.8066 39.1462 35.4698 39.2027 36.119 39.3438C36.7822 39.499 37.4455 39.7107 38.0523 40.0353ZM49.6805 21.2242C49.4547 21.2242 49.2571 21.2807 49.0595 21.3795C48.9762 21.4229 48.8938 21.4664 48.8119 21.5096C48.5746 21.6348 48.3412 21.758 48.0999 21.8734C47.7189 22.0568 47.3379 22.1838 46.9004 22.1838C46.4207 22.1744 45.941 22.1776 45.4612 22.1807H45.461C45.2211 22.1823 44.9812 22.1838 44.7413 22.1838H42.4693C41.9613 22.1838 41.4533 22.2685 40.9734 22.4378C40.2396 22.706 39.6611 23.1434 39.6046 24.0184C39.5623 24.6111 39.7034 25.105 40.155 25.5001C40.663 25.9517 41.2839 26.1493 41.9472 26.1916C42.053 26.1986 42.1588 26.2022 42.2647 26.2057C42.3705 26.2092 42.4764 26.2128 42.5822 26.2198C43.062 26.248 43.5277 26.2339 43.9934 26.1634C44.7695 26.0646 45.5175 25.867 46.2372 25.5848C47.7189 25.0344 48.9043 24.1313 49.6663 22.7342C49.878 22.3391 49.9486 21.9157 49.9204 21.4641C49.9345 21.2948 49.8498 21.2242 49.6805 21.2242ZM47.8459 26.0786C47.9306 26.0222 48.0153 25.9657 48.1141 25.9375C48.4245 25.8246 48.5939 25.9516 48.5939 26.2621V26.4032C48.5374 26.9536 48.3116 27.4334 47.9447 27.8567C47.4508 28.4353 46.8299 28.8586 46.1525 29.2114C45.3905 29.6066 44.6002 29.8888 43.7535 30.0158C43.1749 30.1146 42.5963 30.1287 42.0318 30.0299C41.8202 29.9876 41.6085 29.9029 41.4109 29.7759C40.5501 29.2114 40.8041 27.8567 41.4815 27.5462C41.919 27.3487 42.3564 27.2217 42.8362 27.1652C43.697 27.0664 44.5438 27.0523 45.4046 27.0382C45.6209 27.0382 45.828 27.0015 46.0334 26.965L46.0334 26.965L46.0995 26.9534C46.1266 26.9486 46.1537 26.944 46.1807 26.9394C46.6041 26.8689 46.9851 26.6995 47.3238 26.4455C47.4527 26.3488 47.5816 26.2603 47.7168 26.1675C47.7592 26.1384 47.8021 26.1089 47.8459 26.0786ZM46.5476 30.157C46.4771 30.1852 46.4065 30.2275 46.3501 30.2699C45.9973 30.4957 45.588 30.6368 45.1788 30.6932C44.3462 30.8061 43.4995 30.919 42.6528 30.919C42.2294 30.919 41.8061 31.0037 41.3968 31.1307C41.1851 31.2013 40.9876 31.3141 40.8041 31.4553C40.5078 31.7234 40.3102 32.2596 40.4372 32.556C40.5924 32.8947 40.8182 33.1769 41.1851 33.3039C41.5097 33.4168 41.8484 33.5297 42.1871 33.4874C42.4427 33.5117 42.6668 33.4626 42.8957 33.4124L42.8957 33.4124C42.9322 33.4044 42.9687 33.3964 43.0056 33.3886C43.8946 33.2334 44.7131 32.8806 45.4469 32.3584C45.9126 32.0197 46.3218 31.6105 46.6041 31.1025C46.7311 30.8626 46.8158 30.6086 46.8299 30.3263C46.844 30.1287 46.7311 30.0723 46.5476 30.157ZM25.5633 9.8783C26.2266 10.7391 26.6358 11.727 26.9322 12.7571C27.1297 13.4345 27.2426 14.1119 27.285 14.8316C27.2992 14.9882 27.3063 15.0658 27.2735 15.1188C27.2413 15.1708 27.1708 15.199 27.031 15.2549C26.4806 15.4807 25.902 15.5372 25.5492 15.5654C24.6743 15.5795 24.0675 15.4384 23.4748 15.2126C23.2067 15.1138 23.1784 15.0856 23.2067 14.8174C23.3619 13.0252 23.8558 11.3459 24.9424 9.8783C25.2247 9.49728 25.267 9.49728 25.5633 9.8783ZM26.7064 8.15664C26.5088 8.29776 26.5088 8.34009 26.6782 8.52355C26.6993 8.54472 26.7205 8.56236 26.7417 8.58C26.7628 8.59764 26.784 8.61528 26.8052 8.63644C28.0188 9.82184 28.8232 11.2189 29.0913 12.9123C29.1054 13.0041 29.116 13.0923 29.1266 13.1805C29.1372 13.2687 29.1477 13.3569 29.1619 13.4486C29.1901 13.5756 29.2889 13.6038 29.3735 13.505C29.4018 13.4768 29.4159 13.4486 29.43 13.4204C30.0791 12.5031 30.4319 11.487 30.446 10.3016C30.4319 9.87828 30.3896 9.39848 30.2485 8.93279C30.0368 8.25542 29.7404 7.60628 29.2606 7.07003C29.0772 6.87246 29.0348 6.84424 28.8373 6.94302C28.1035 7.28171 27.3696 7.66273 26.7064 8.15664ZM21.0961 13.3649C21.0892 13.3546 21.0825 13.3446 21.0758 13.3357C20.5536 12.5595 20.2291 11.7269 20.1444 10.7956C20.1406 10.7346 20.1337 10.6736 20.1268 10.6124C20.108 10.4468 20.0891 10.2792 20.1303 10.1041C20.1726 9.01746 20.5677 8.04374 21.2169 7.1547C21.4286 6.85835 21.4568 6.85835 21.7814 6.99947C22.5011 7.30993 23.1643 7.69095 23.7994 8.15664C24.0251 8.32598 24.0251 8.3542 23.8276 8.53766C23.3337 9.00335 22.8821 9.51137 22.5152 10.0758C22.1483 10.6262 21.8801 11.2189 21.6685 11.8398C21.5695 12.1368 21.5107 12.4453 21.4518 12.7543L21.4518 12.7543L21.4518 12.7543L21.4517 12.7543L21.4517 12.7543L21.4517 12.7544L21.4517 12.7544L21.4517 12.7544L21.4517 12.7544L21.4517 12.7544L21.4517 12.7544C21.4183 12.9299 21.3848 13.1055 21.3439 13.2792C21.3345 13.298 21.3314 13.32 21.3282 13.342C21.3219 13.3859 21.3157 13.4298 21.2592 13.4486C21.1761 13.4842 21.1329 13.4198 21.0961 13.3649ZM22.7269 6.2233C22.7551 6.23741 22.7833 6.25152 22.8256 6.26564C23.5736 6.56198 24.2933 6.88656 24.9848 7.30991C25.1682 7.42281 25.3093 7.43692 25.5069 7.32402C26.156 6.943 26.8193 6.59021 27.5249 6.32208C27.5559 6.30969 27.5875 6.2973 27.6195 6.28476C27.7335 6.24017 27.8522 6.1937 27.9623 6.13863C28.0894 6.06807 28.0894 5.99751 27.9765 5.91284C27.9482 5.89873 27.92 5.88462 27.8918 5.85639C27.1015 5.3907 26.2407 5.16491 25.3093 5.12258C24.3921 5.16491 23.5171 5.37659 22.7127 5.85639C22.6881 5.87281 22.6599 5.88565 22.6319 5.89838C22.5637 5.92941 22.497 5.95979 22.487 6.03985C22.487 6.13037 22.5587 6.15637 22.6356 6.18428C22.6666 6.19553 22.6985 6.20709 22.7269 6.2233ZM27.2991 11.3883C27.7083 12.2914 27.9482 13.251 28.0894 14.2389V14.2389C28.0894 14.2953 28.0894 14.3518 28.1035 14.3941C28.1035 14.414 28.104 14.4338 28.1046 14.4536C28.1069 14.532 28.1091 14.6087 28.0752 14.6763C28.0329 14.7751 27.9482 14.8457 27.8353 14.8316C27.7298 14.8316 27.7217 14.7537 27.7139 14.6787C27.7123 14.6635 27.7107 14.6483 27.7083 14.634C27.666 14.0413 27.5672 13.4627 27.4261 12.8982C27.1156 11.6141 26.5371 10.471 25.6903 9.45495C25.6788 9.44336 25.6656 9.43124 25.6519 9.41863L25.6518 9.41859C25.5653 9.33907 25.4576 9.23998 25.5916 9.13038C25.7141 9.02009 25.8047 9.13327 25.8819 9.22966C25.8936 9.24427 25.905 9.2585 25.9161 9.2715C26.4806 9.90653 26.9463 10.6121 27.2991 11.3883ZM24.3074 9.04566C24.3638 8.98921 24.4203 8.93276 24.4626 8.8622C24.5191 8.74931 24.4344 8.6223 24.3215 8.6223C24.265 8.6223 24.2509 8.63641 24.1098 8.77753C23.5453 9.31378 23.0797 9.9347 22.6986 10.6262C22.1483 11.614 21.8378 12.6865 21.6967 13.8013C21.6826 13.886 21.6826 13.9848 21.7108 14.0695C21.7531 14.1541 21.8237 14.2247 21.9084 14.2247C22.0211 14.2247 22.0338 14.1358 22.0451 14.0566L22.0469 14.044L22.0495 14.0271V13.886C22.1059 13.1804 22.2612 12.5031 22.5152 11.8539C22.9244 10.7955 23.5171 9.85003 24.3074 9.04566ZM26.41 8.77754C27.412 9.76537 28.1035 10.9366 28.4986 12.2773C28.6397 12.7571 28.7244 13.2369 28.7949 13.759C28.802 13.7872 28.8055 13.8155 28.8091 13.8437C28.8126 13.8719 28.8161 13.9001 28.8232 13.9284C28.8157 13.9508 28.8122 13.9773 28.8084 14.0056C28.8051 14.0307 28.8016 14.0571 28.7949 14.0836C28.7667 14.1824 28.7103 14.2812 28.5974 14.2812C28.4918 14.2694 28.4837 14.1797 28.4759 14.0931C28.4743 14.0754 28.4728 14.0579 28.4704 14.0413C28.3575 12.6724 27.9482 11.4165 27.2003 10.2734C26.904 9.82182 26.5794 9.39846 26.1843 9.01744C26.1656 8.99877 26.1449 8.98111 26.1244 8.96361L26.1244 8.96357C26.0364 8.88844 25.9516 8.81608 26.0431 8.67876C26.1137 8.57998 26.2407 8.6082 26.41 8.77754ZM24.9142 9.31379C24.9424 9.27145 24.9565 9.21501 24.9142 9.15856C24.8719 9.11622 24.8013 9.11622 24.759 9.14445C24.7025 9.18678 24.6461 9.24323 24.5896 9.31379C23.2913 10.7814 22.6422 12.5313 22.4446 14.4787C22.4446 14.4919 22.4432 14.5065 22.4418 14.522C22.4386 14.5562 22.4349 14.5951 22.4446 14.634C22.4587 14.7045 22.5152 14.7468 22.5857 14.761C22.6704 14.7751 22.7127 14.7186 22.741 14.6622C22.7551 14.6198 22.7551 14.5775 22.7551 14.5352C22.7692 14.0271 22.8821 13.5332 22.995 13.0393C23.2913 11.7128 23.884 10.5415 24.7731 9.51136C24.8066 9.46939 24.8352 9.42743 24.8618 9.38844L24.8618 9.3884L24.8618 9.38838L24.8619 9.38826L24.862 9.38804L24.8621 9.38793C24.8801 9.36154 24.8971 9.33652 24.9142 9.31379ZM26.0149 7.26445L26.0149 7.26443C26.2125 7.139 26.4101 7.01357 26.6076 6.90068C27.0046 6.67739 27.4342 6.47592 27.8582 6.27709L28.0329 6.19508C28.174 6.12452 28.3151 6.12452 28.4422 6.2092C28.4986 6.23742 28.5268 6.29387 28.5268 6.35031C28.5127 6.4491 28.4422 6.47732 28.3716 6.50554C28.2093 6.57611 28.0435 6.64667 27.8777 6.71723C27.7119 6.78779 27.546 6.85834 27.3838 6.9289C26.9181 7.14058 26.4806 7.39459 26.0431 7.6486C26.0262 7.65875 26.0101 7.66889 25.9947 7.67864C25.9455 7.7096 25.9026 7.73665 25.8597 7.74739C25.7468 7.78972 25.648 7.73327 25.6057 7.63449C25.5659 7.54161 25.6383 7.49863 25.7058 7.45863L25.7186 7.45104C25.8173 7.38993 25.916 7.32726 26.0147 7.26459L26.0149 7.26445ZM22.2329 6.56202C22.24 6.56908 22.2506 6.5726 22.2612 6.57613C22.2718 6.57966 22.2823 6.58319 22.2894 6.59024C22.9103 6.80192 23.4889 7.08416 24.0534 7.42284C24.0915 7.44506 24.1303 7.468 24.1695 7.49117C24.3045 7.57099 24.4443 7.65357 24.5755 7.71919C24.7166 7.78975 24.886 7.7333 24.9001 7.6063C24.9001 7.52306 24.84 7.48992 24.7788 7.45622C24.7674 7.44993 24.756 7.44361 24.7449 7.43695C24.0251 6.95715 23.2349 6.59024 22.4446 6.22333C22.4164 6.20922 22.3882 6.19511 22.3458 6.181C22.2188 6.15278 22.0213 6.23745 21.993 6.33623C21.993 6.45117 22.0782 6.48874 22.1567 6.52342C22.1842 6.53557 22.211 6.54737 22.2329 6.56202ZM26.4712 7.69096C26.6145 7.59276 26.7566 7.49541 26.904 7.4087C27.3979 7.11235 27.92 6.83012 28.4563 6.61844C28.4708 6.61115 28.4845 6.60386 28.4977 6.59681C28.5355 6.57658 28.5696 6.55835 28.6115 6.54788C28.7103 6.51966 28.8232 6.50554 28.8655 6.63255C28.9078 6.73133 28.8091 6.78778 28.7244 6.816C28.3857 6.95712 28.047 7.11235 27.7083 7.26758C27.3132 7.45104 26.9322 7.67683 26.5794 7.93084C26.5607 7.94422 26.5419 7.95861 26.523 7.97315L26.5229 7.9732C26.4421 8.03534 26.3577 8.10018 26.2548 8.10018C26.1984 8.10018 26.156 8.08607 26.1278 8.04373C26.0996 7.97318 26.1419 7.91673 26.1984 7.87439C26.2909 7.81454 26.3813 7.75258 26.4712 7.69096ZM21.7955 6.83012L21.7955 6.83013C21.8237 6.84424 21.8519 6.85835 21.8943 6.87246C22.6563 7.16881 23.3901 7.54982 24.0675 8.01551L24.0736 8.01988C24.1709 8.08947 24.2809 8.16813 24.3638 8.04374C24.4294 7.93441 24.351 7.88438 24.273 7.83457C24.2503 7.82009 24.2277 7.80562 24.2086 7.78973C23.5171 7.30992 22.7833 6.9289 22.0213 6.59022C21.9648 6.562 21.9225 6.54788 21.8801 6.53377C21.7672 6.54788 21.7108 6.59022 21.6826 6.67489C21.6685 6.75956 21.7249 6.8019 21.7955 6.83012ZM25.4363 7.98732C25.4081 8.0861 25.3375 8.12843 25.2388 8.12843C25.14 8.12843 25.0694 8.07199 25.0694 7.9732C25.0835 7.8462 25.1823 7.81798 25.2952 7.83209C25.3799 7.8462 25.4363 7.88853 25.4363 7.98732Z" fill="#FF906D"/>
</svg>
