<svg width="58" height="53" viewBox="0 0 58 53" fill="none" xmlns="http://www.w3.org/2000/svg">
<path fill-rule="evenodd" clip-rule="evenodd" d="M30.5512 2.98953V0C45.1571 0 57.0512 11.894 57.0512 26.5C57.0512 41.106 45.1571 53 30.5512 53C16.5431 53 5.0548 42.0882 4.11523 28.3151H0.719986L5.52458 19.9871L10.3505 28.3151H7.10476C8.04432 40.444 18.1874 50.0105 30.5512 50.0105C43.5129 50.0105 54.0617 39.4617 54.0617 26.5C54.0617 13.5383 43.5129 2.98953 30.5512 2.98953ZM31.7577 36.8352C33.2525 37.7748 34.9394 38.2446 36.8612 38.2446C38.7831 38.2446 40.47 37.7748 41.9648 36.8352C43.4595 35.8957 44.634 34.529 45.4668 32.7353C46.3209 30.9416 46.7267 28.8062 46.7267 26.3292C46.7267 23.8522 46.2996 21.7168 45.4668 19.9231C44.6127 18.1294 43.4595 16.7627 41.9648 15.8231C40.47 14.8836 38.7831 14.4138 36.8612 14.4138C34.9394 14.4138 33.2525 14.9049 31.7577 15.8445C30.2629 16.7841 29.0885 18.1507 28.2557 19.9444C27.4015 21.7381 26.9958 23.8735 26.9958 26.3505C26.9958 28.8276 27.4229 30.963 28.2557 32.7567C29.0885 34.529 30.2629 35.8957 31.7577 36.8352ZM33.5728 20.7559C34.3629 19.56 35.4732 18.9408 36.8399 18.9408C38.2492 18.9408 39.3383 19.5387 40.1497 20.7559C40.9398 21.973 41.3455 23.8308 41.3455 26.3505C41.3455 28.8703 40.9398 30.7281 40.1497 31.9452C39.3383 33.1624 38.2492 33.7603 36.8399 33.7603C35.4519 33.7603 34.3629 33.1624 33.5728 31.9452C32.7613 30.7494 32.377 28.8703 32.377 26.3505C32.377 23.8094 32.7827 21.9517 33.5728 20.7559ZM18.0485 37.8602H23.3656V14.8195H13.4361V19.1116H18.0485V37.8602Z" fill="#FF906D"/>
</svg>
