<svg width="13" height="13" viewBox="0 0 13 13" fill="none" xmlns="http://www.w3.org/2000/svg">
<path d="M9.48312 8.35967L9.48358 8.36009C9.83691 8.68425 10.2125 8.9697 10.5981 9.26281C10.7619 9.38727 10.9275 9.51311 11.0939 9.64388C11.2432 9.76009 11.3913 9.888 11.4434 10.0763C11.4942 10.2597 11.4379 10.4472 11.3794 10.6231C11.3794 10.6233 11.3793 10.6235 11.3792 10.6237L11.142 10.5449C11.099 10.6771 11.0462 10.8042 10.993 10.9322C10.9827 10.9568 10.9725 10.9815 10.9623 11.0062L9.48312 8.35967ZM9.48312 8.35967C9.35926 8.24659 9.21493 8.15674 9.0367 8.15087C8.86512 8.14522 8.7145 8.21996 8.58344 8.30585L8.58327 8.30596M9.48312 8.35967L8.58327 8.30596M8.58327 8.30596C8.38387 8.43685 8.19678 8.58656 8.02481 8.7582L8.20142 8.93515M8.58327 8.30596L4.8384 6.11141M7.67979 9.37249C7.54002 9.46914 7.40545 9.48144 7.25415 9.38854M7.67979 9.37249C7.86709 9.24292 8.03945 9.09608 8.20142 8.93515M7.67979 9.37249L7.53759 9.16687C7.53758 9.16687 7.53757 9.16688 7.53756 9.16689M7.67979 9.37249L7.53756 9.16689M7.25415 9.38854L8.72047 8.51495C8.53428 8.63717 8.36057 8.7763 8.20142 8.93515M7.25415 9.38854C7.12566 9.31062 7.01121 9.21468 6.89731 9.11921C6.8505 9.07998 6.8038 9.04083 6.75625 9.00304L7.25415 9.38854ZM8.20142 8.93515L8.02521 8.7578C7.87224 8.90979 7.71112 9.04682 7.53756 9.16689M7.53756 9.16689C7.49418 9.19688 7.46977 9.20135 7.45866 9.20191C7.4492 9.20239 7.42716 9.2014 7.38497 9.17549L7.38379 9.17477C7.27221 9.10711 7.18018 9.02989 7.07369 8.94053C7.02402 8.89886 6.97121 8.85454 6.9118 8.80732L6.91017 8.80604C5.98598 8.0839 5.29122 7.1905 4.8384 6.11141M4.8384 6.11141C4.81504 6.0554 4.79181 6.00076 4.769 5.94708C4.67391 5.72328 4.58595 5.51629 4.52455 5.29769C4.51237 5.25426 4.51605 5.23211 4.51897 5.2224C4.52158 5.21372 4.52899 5.19641 4.55942 5.17183L4.56053 5.17093C4.63503 5.11005 4.71498 5.05283 4.80235 4.99256C4.9051 4.9234 5.01172 4.86239 5.1275 4.79613C5.15303 4.78152 5.17901 4.76665 5.2055 4.75139C5.34811 4.66918 5.50128 4.57751 5.64576 4.46355L5.64576 4.46355L5.64704 4.46253C5.79625 4.34325 5.93678 4.20467 5.98528 4.0127C6.03473 3.81694 5.97333 3.62872 5.88797 3.45108L5.88773 3.4506C5.72529 3.11438 5.59363 2.76337 5.45746 2.40032C5.44664 2.37147 5.4358 2.34255 5.4249 2.31355L5.19089 2.40147L5.42505 2.31395C5.39538 2.23455 5.36583 2.15167 5.33561 2.06688C5.26299 1.86317 5.18646 1.64847 5.09481 1.44467M4.8384 6.11141L5.44671 10.6879C4.66427 10.0163 4.02215 9.22947 3.45221 8.39472C3.02834 7.77581 2.63615 7.11871 2.38597 6.38254L2.38593 6.38242C2.10514 5.55483 1.90175 4.69246 1.86031 3.79731L1.86026 3.79637C1.83055 3.09756 2.1018 2.49654 2.49899 1.97692L2.49985 1.97579L2.49986 1.97579C2.66956 1.75637 2.86139 1.53411 3.10554 1.35142L3.10683 1.35045L3.10683 1.35046C3.24584 1.24783 3.40292 1.16877 3.58393 1.13108L3.63488 1.37584L3.58364 1.13114C3.89946 1.06501 4.21626 1.04608 4.53182 1.0592L4.53239 1.05922C4.65189 1.06446 4.76881 1.09625 4.8717 1.16681C4.97422 1.23713 5.04628 1.3346 5.09481 1.44467M5.09481 1.44467C5.09496 1.44501 5.09511 1.44535 5.09526 1.4457L4.86637 1.54624L5.09435 1.44364C5.0945 1.44398 5.09466 1.44433 5.09481 1.44467Z" fill="#54535F" stroke="#54535F" stroke-width="0.5"/>
</svg>
