<svg width="67" height="18" viewBox="0 0 67 18" fill="none" xmlns="http://www.w3.org/2000/svg">
<path d="M65.1389 14.4H48.3889C48.3889 6.45984 41.7097 0 33.5 0C31.7148 0 30.01 0.32112 28.4221 0.88056L25.1056 2.5164C21.1891 5.11344 18.6111 9.46944 18.6111 14.4H1.86111C0.833033 14.4 0 15.2057 0 16.2C0 17.1943 0.833033 18 1.86111 18H20.4722H46.5278H65.1389C66.167 18 67 17.1943 67 16.2C67 15.2057 66.167 14.4 65.1389 14.4ZM29.7778 14.4C29.7778 12.415 31.4476 10.8 33.5 10.8C35.5524 10.8 37.2222 12.415 37.2222 14.4H29.7778ZM40.9444 14.4C40.9444 10.4299 37.6049 7.2 33.5 7.2C29.3951 7.2 26.0556 10.4299 26.0556 14.4H22.3333C22.3333 8.44488 27.3427 3.6 33.5 3.6C39.6573 3.6 44.6667 8.44488 44.6667 14.4H40.9444Z" fill="#FF906D"/>
<path d="M65.1389 14.4H48.3889C48.3889 6.45984 41.7097 0 33.5 0C31.7148 0 30.01 0.32112 28.4221 0.88056L25.1056 2.5164C21.1891 5.11344 18.6111 9.46944 18.6111 14.4H1.86111C0.833033 14.4 0 15.2057 0 16.2C0 17.1943 0.833033 18 1.86111 18H20.4722H46.5278H65.1389C66.167 18 67 17.1943 67 16.2C67 15.2057 66.167 14.4 65.1389 14.4ZM29.7778 14.4C29.7778 12.415 31.4476 10.8 33.5 10.8C35.5524 10.8 37.2222 12.415 37.2222 14.4H29.7778ZM40.9444 14.4C40.9444 10.4299 37.6049 7.2 33.5 7.2C29.3951 7.2 26.0556 10.4299 26.0556 14.4H22.3333C22.3333 8.44488 27.3427 3.6 33.5 3.6C39.6573 3.6 44.6667 8.44488 44.6667 14.4H40.9444Z" fill="#FF906D"/>
<path d="M46 15H19L23.4082 6.81818L30.0204 3H37.7347L44.898 7.90909L46 15Z" fill="#FF906D"/>
</svg>
