<svg width="26" height="27" viewBox="0 0 26 27" fill="none" xmlns="http://www.w3.org/2000/svg">
<path d="M25.1908 11.1916C24.367 6.13028 20.4725 2.06586 15.5296 1.06893C15.0053 0.992241 14.481 0.915554 13.9568 0.838867C13.4325 0.838867 12.9083 0.838867 12.4589 0.838867C11.9347 0.915554 11.4104 0.992241 10.8862 1.06893C6.09299 1.98917 2.12364 6.05359 1.22492 10.8849C1.15003 11.4217 1.07514 11.9585 1.00024 12.572C1.00024 13.1088 1.00024 13.6456 1.00024 14.1057C1.07514 14.5659 1.15003 15.026 1.15003 15.4861C1.97386 20.3941 5.79342 24.4585 10.5117 25.5321C11.036 25.6855 11.6351 25.6855 12.2342 25.7622C12.3091 25.7622 12.384 25.7622 12.384 25.8389C12.9083 25.8389 13.4325 25.8389 13.8819 25.8389C14.4062 25.7622 14.9304 25.6855 15.4547 25.6088C20.4725 24.6119 24.367 20.5475 25.1908 15.4861C25.2657 15.026 25.3406 14.5659 25.3406 14.1057C25.3406 13.5689 25.3406 13.0321 25.3406 12.572C25.3406 12.1119 25.2657 11.6518 25.1908 11.1916ZM13.2079 24.5352C7.1415 24.5352 2.27343 19.4738 2.27343 13.2622C2.27343 7.05052 7.21639 1.98917 13.2828 2.06586C19.3491 2.06586 24.2921 7.12721 24.2172 13.3389C24.1423 19.5505 19.1993 24.5352 13.2079 24.5352Z" fill="#54535F" stroke="#54535F"/>
<path d="M18.3755 8.50693C15.4547 9.65727 12.5339 10.8076 9.61306 11.958C8.63945 12.3414 7.59095 12.7248 6.61734 13.185C6.39266 13.2617 6.09309 13.4151 6.16798 13.7218C6.16798 14.0286 6.46755 14.1053 6.69223 14.1053C7.59095 14.412 8.48966 14.6421 9.38838 14.9488C9.53816 15.0255 9.68795 14.9488 9.76284 14.8722C11.2607 13.8752 12.7586 12.9549 14.2564 11.958C15.0054 11.4978 15.7543 11.0377 16.5032 10.5009C16.653 10.4242 16.8028 10.2708 17.1024 10.4242C16.9526 10.5775 16.8777 10.6542 16.8028 10.7309C15.0054 12.4181 13.2079 14.0286 11.4854 15.7157C11.4105 15.7924 11.3356 15.8691 11.3356 16.0225C11.3356 16.9428 11.3356 17.863 11.4105 18.7833C11.4105 19.0134 11.5603 19.0134 11.7101 18.9367C11.785 18.86 11.8598 18.7833 11.9347 18.7066C12.3841 18.2465 12.8335 17.7863 13.2828 17.4029C13.3577 17.4796 13.4326 17.4796 13.5075 17.5563C14.4062 18.2465 15.3049 18.9367 16.2036 19.5502C16.8777 20.087 17.327 19.857 17.4768 19.0901C18.0011 16.7127 18.4504 14.2586 18.9747 11.8813C19.1245 11.0377 19.3491 10.1941 19.4989 9.35051C19.424 8.737 19.1245 8.20017 18.3755 8.50693Z" fill="#54535F"/>
</svg>
