<svg width="20" height="18" viewBox="0 0 20 18" fill="none" xmlns="http://www.w3.org/2000/svg">
<path opacity="0.7" fill-rule="evenodd" clip-rule="evenodd" d="M19.5403 11.207C19.7702 11.7242 19.3679 12.2989 18.7932 12.2989V12.3564H1.09196C0.459773 12.3564 0 11.8391 0 11.2644V1.09196C0 0.459773 0.459773 0 1.09196 0H14.5978C15.0001 0 15.4024 0.287358 15.5748 0.689659L19.5403 11.207ZM3.56324 1.49426C3.10347 1.49426 2.75864 1.83909 2.75864 2.29886V6.14946C2.75864 6.60923 3.10347 6.95406 3.56324 6.95406H9.13798C9.59775 6.95406 9.94258 6.60923 9.94258 6.14946V2.29886C9.94258 1.83909 9.59775 1.49426 9.13798 1.49426H3.56324ZM3 18C4.10457 18 5 17.1046 5 16C5 14.8954 4.10457 14 3 14C1.89543 14 1 14.8954 1 16C1 17.1046 1.89543 18 3 18ZM10 16C10 14.92 10.8797 14 11.9994 14C13.119 14 14.0387 14.92 13.9987 16C13.9987 17.08 13.079 18 11.9994 18C10.9197 18 10 17.12 10 16ZM15 16C15 14.92 15.8797 14 16.9994 14C18.119 14 19.0387 14.92 18.9987 16C18.9987 17.08 18.079 18 16.9994 18C15.9197 18 15 17.12 15 16Z" fill="#BAB9C4"/>
</svg>
