<svg width="26" height="26" viewBox="0 0 26 26" fill="none" xmlns="http://www.w3.org/2000/svg">
<path d="M25.7078 10.0401C24.9988 6.59779 23.0818 3.93781 20.1408 2.00802C18.4865 0.938816 16.6483 0.286861 14.6789 0.0782347C14.4163 0.0521565 14.18 0.0260782 13.9436 0C13.471 0 12.972 0 12.4994 0C12.4731 0 12.4469 0.0260782 12.4206 0.0260782C11.8954 0.104313 11.344 0.130391 10.8188 0.234704C7.61517 0.860582 4.98925 2.45135 3.04607 5.05918C0.919072 7.87563 0.131296 11.0572 0.630221 14.5517C0.866553 16.1946 1.418 17.7071 2.25829 19.1153C2.28455 19.1675 2.31081 19.2457 2.28455 19.2979C1.65433 21.1755 1.02411 23.0532 0.367629 24.9308C0.236333 25.2959 0.131296 25.6349 0 26C0.0525184 25.9739 0.105037 25.9739 0.131296 25.9478C2.36333 25.2437 4.62162 24.5135 6.85365 23.8094C6.98495 23.7573 7.08998 23.7573 7.22128 23.8355C9.89972 25.2437 12.7357 25.661 15.6767 25.0873C18.6965 24.5135 21.1912 23.0271 23.1081 20.68C25.629 17.5507 26.5218 13.9779 25.7078 10.0401ZM21.0336 19.9238C19.4318 21.6449 17.4361 22.7402 15.1253 23.1314C12.3943 23.6008 9.82094 23.1053 7.48387 21.6189C7.37883 21.5667 7.30006 21.5406 7.19502 21.5928C5.93458 22.01 4.64788 22.4012 3.38744 22.7924C3.33492 22.8185 3.30866 22.8185 3.22988 22.8445C3.36118 22.4794 3.46621 22.1404 3.57125 21.8014C3.88636 20.8626 4.20147 19.9499 4.51658 19.011C4.54284 18.9328 4.54284 18.8546 4.49032 18.7763C3.49247 17.3681 2.83599 15.8034 2.62592 14.0822C2.23203 11.1876 2.94103 8.52758 4.72665 6.18054C6.24969 4.1986 8.24539 2.92076 10.6612 2.32096C11.5015 2.11234 12.3681 2.00802 13.2084 2.00802C16.0706 2.0341 18.539 3.02508 20.6135 4.98094C22.3728 6.64995 23.4495 8.65797 23.7908 11.0311C24.316 14.4473 23.3707 17.4203 21.0336 19.9238Z" fill="#54535F"/>
<path d="M19.4317 15.386C18.6439 15.0209 17.8561 14.6298 17.0684 14.2647C17.0421 14.2386 16.9896 14.2386 16.9633 14.2125C16.622 14.0821 16.3594 14.1603 16.1493 14.4472C15.8867 14.7862 15.6504 15.1513 15.3615 15.4903C15.1514 15.725 14.8889 15.8033 14.6 15.6729C14.2849 15.5425 13.9435 15.4121 13.6547 15.2296C12.2367 14.4733 11.16 13.378 10.346 12.0219C10.1885 11.7611 10.1885 11.6047 10.3985 11.37C10.5823 11.1353 10.7924 10.9266 11.0025 10.6919C11.3176 10.3529 11.4226 10.0139 11.16 9.59665C11.1338 9.57057 11.1338 9.5445 11.1338 9.51842C10.8449 8.81431 10.5561 8.11019 10.2672 7.40608C10.1359 7.06706 9.92587 6.85844 9.53198 6.88452C9.47946 6.88452 9.4532 6.88452 9.40068 6.88452C9.29565 6.88452 9.21687 6.88452 9.13809 6.88452C8.77046 6.91059 8.42909 6.96275 8.14024 7.22353C7.77261 7.56255 7.4575 7.95372 7.27369 8.42313C6.8798 9.38803 6.93232 10.3268 7.29995 11.2917C7.56254 11.9958 7.95643 12.5956 8.37657 13.1954C9.16435 14.2907 10.0572 15.3078 11.0813 16.1684C12.2629 17.1593 13.6022 17.8113 15.0464 18.2807C15.5979 18.4633 16.1493 18.6197 16.7007 18.6197C17.5936 18.6197 18.3813 18.2807 19.0378 17.6809C19.1954 17.5244 19.3529 17.3158 19.458 17.1072C19.6418 16.716 19.7205 16.2727 19.7205 15.8294C19.7205 15.6207 19.6418 15.4903 19.4317 15.386Z" fill="#54535F"/>
</svg>
